<svg xmlns="http://www.w3.org/2000/svg" xmlns:xlink="http://www.w3.org/1999/xlink" width="500" zoomAndPan="magnify" viewBox="0 0 375 374.999991" height="500" preserveAspectRatio="xMidYMid meet" version="1.0"><defs><clipPath id="3e14e3158c"><path d="M 77.988281 81.25 L 301.488281 81.25 L 301.488281 293.5 L 77.988281 293.5 Z M 77.988281 81.25 " clip-rule="nonzero"/></clipPath></defs><g clip-path="url(#3e14e3158c)"><path fill="#ffffff" d="M 95.25 81.253906 L 284.230469 81.253906 C 288.808594 81.253906 293.195312 83.066406 296.433594 86.300781 C 299.671875 89.53125 301.488281 93.914062 301.488281 98.480469 L 301.488281 276.269531 C 301.488281 280.835938 299.671875 285.21875 296.433594 288.449219 C 293.195312 291.683594 288.808594 293.496094 284.230469 293.496094 L 95.25 293.496094 C 90.671875 293.496094 86.28125 291.683594 83.042969 288.449219 C 79.808594 285.21875 77.988281 280.835938 77.988281 276.269531 L 77.988281 98.480469 C 77.988281 93.914062 79.808594 89.53125 83.042969 86.300781 C 86.28125 83.066406 90.671875 81.253906 95.25 81.253906 " fill-opacity="1" fill-rule="nonzero"/></g><path fill="#7289da" d="M 187.5 375 C 291.054688 375 375 291.054688 375 187.5 C 375 83.945312 291.054688 0 187.5 0 C 83.945312 0 0 83.945312 0 187.5 C 0 291.054688 83.945312 375 187.5 375 Z M 287.257812 114.042969 L 253.113281 265.257812 C 252.925781 266.082031 252.636719 266.871094 252.257812 267.601562 C 252.019531 268.054688 251.75 268.488281 251.449219 268.898438 C 250.292969 270.46875 248.671875 271.679688 246.769531 272.335938 C 243.574219 273.4375 240.035156 272.800781 237.417969 270.660156 L 192.796875 234.152344 L 174.078125 267.847656 C 172.160156 271.296875 168.355469 273.253906 164.433594 272.800781 C 160.515625 272.351562 157.25 269.585938 156.167969 265.792969 L 138.289062 203.21875 L 95.34375 194.628906 C 91.117188 193.785156 87.945312 190.265625 87.542969 185.976562 C 87.519531 185.707031 87.503906 185.441406 87.5 185.175781 C 87.496094 184.867188 87.507812 184.5625 87.53125 184.261719 C 87.828125 180.640625 90.136719 177.421875 93.589844 176.019531 L 274.015625 102.875 C 274.144531 102.820312 274.273438 102.769531 274.40625 102.722656 C 275.875 102.1875 277.402344 102.027344 278.871094 102.199219 C 279.945312 102.324219 281.007812 102.628906 282.019531 103.125 C 282.125 103.171875 282.226562 103.226562 282.328125 103.28125 C 283.667969 103.992188 284.847656 105.019531 285.75 106.316406 C 286.214844 106.984375 286.597656 107.710938 286.882812 108.476562 C 287.226562 109.390625 287.421875 110.335938 287.480469 111.277344 C 287.539062 112.1875 287.46875 113.113281 287.261719 114.039062 Z M 232.289062 152.039062 L 182.390625 213.03125 C 181.972656 213.539062 181.613281 214.078125 181.316406 214.636719 L 168.457031 237.785156 L 157.425781 199.171875 Z M 232.289062 152.039062 " fill-opacity="1" fill-rule="evenodd"/></svg>