<svg xmlns="http://www.w3.org/2000/svg" xmlns:xlink="http://www.w3.org/1999/xlink" width="500" zoomAndPan="magnify" viewBox="0 0 375 374.999991" height="500" preserveAspectRatio="xMidYMid meet" version="1.0"><defs><clipPath id="8c308d56fe"><path d="M 22.21875 2.828125 L 352.96875 2.828125 L 352.96875 371.828125 L 22.21875 371.828125 Z M 22.21875 2.828125 " clip-rule="nonzero"/></clipPath></defs><g clip-path="url(#8c308d56fe)"><path fill="#7289da" d="M 352.925781 2.828125 L 22.265625 2.828125 L 51.441406 332.988281 L 187.59375 371.828125 L 323.75 332.988281 Z M 352.925781 2.828125 " fill-opacity="1" fill-rule="nonzero"/></g><path fill="#afbef4" d="M 187.59375 31.960938 L 187.59375 341.726562 L 296.519531 310.652344 L 320.832031 31.960938 Z M 187.59375 31.960938 " fill-opacity="1" fill-rule="nonzero"/><path fill="#ffffff" d="M 276.09375 80.515625 L 187.59375 80.515625 L 187.59375 119.355469 L 235.25 119.355469 L 232.332031 158.199219 L 187.59375 158.199219 L 187.59375 197.039062 L 230.386719 197.039062 L 227.46875 240.738281 L 187.59375 254.332031 L 187.59375 295.117188 L 264.425781 269.867188 L 271.234375 158.199219 Z M 276.09375 80.515625 " fill-opacity="1" fill-rule="nonzero"/><path fill="#ebeefa" d="M 187.59375 80.515625 L 187.59375 119.355469 L 101.039062 119.355469 L 98.121094 80.515625 Z M 142.859375 158.199219 L 144.804688 197.039062 L 187.59375 197.039062 L 187.59375 158.199219 Z M 146.75 216.460938 L 107.847656 216.460938 L 110.765625 269.867188 L 187.59375 295.117188 L 187.59375 254.332031 L 147.722656 240.738281 Z M 146.75 216.460938 " fill-opacity="1" fill-rule="nonzero"/></svg>