<svg xmlns="http://www.w3.org/2000/svg" xmlns:xlink="http://www.w3.org/1999/xlink" width="500" zoomAndPan="magnify" viewBox="0 0 375 374.999991" height="500" preserveAspectRatio="xMidYMid meet" version="1.0"><defs><g/></defs><g fill="#7289da" fill-opacity="1"><g transform="translate(85.874999, 236.249984)"><g><path d="M 24.15625 -91.203125 L 24.15625 -52.34375 L 73.65625 -52.203125 L 64.65625 -29.546875 L 32.09375 -29.546875 L 32.09375 0 L 9.453125 0 L 9.453125 -91.203125 Z M 16.203125 -104.546875 L 90.59375 -104.546875 L 90.59375 -82.046875 L 38.25 -82.046875 L 38.25 -58.5 L 30.296875 -58.5 L 30.296875 -97.5 L 15.59375 -97.5 L 15.59375 -104.40625 L 16.203125 -104.40625 Z M 16.203125 -104.546875 "/></g></g></g><g fill="#7289da" fill-opacity="1"><g transform="translate(178.575021, 236.249984)"><g><path d="M 77.84375 -94.953125 L 100.5 -104.703125 L 100.5 0 L 67.65625 -28.796875 L 67.65625 -38.40625 L 15 -84.296875 L 15 -104.84375 L 77.84375 -49.796875 Z M 8.84375 0 L 8.84375 -78.15625 L 61.5 -32.25 L 61.5 -22.65625 L 31.5 -48.90625 L 31.5 0 Z M 8.84375 0 "/></g></g></g><path stroke-linecap="butt" transform="matrix(0.75, 0, 0, 0.75, 85.874999, 82.499995)" fill="none" stroke-linejoin="miter" d="M 32.177087 83.416679 L 32.177087 135.177099 L 98.192716 135.421891 L 86.182299 165.593768 L 42.822921 165.593768 L 42.822921 205.000021 L 12.598961 205.000021 L 12.598961 83.416679 Z M 21.583336 65.593762 L 120.802093 65.593762 L 120.802093 95.578138 L 50.973963 95.578138 L 50.973963 127.020849 L 40.380213 127.020849 L 40.380213 75.020845 L 20.802086 75.020845 L 20.802086 65.791678 L 21.583336 65.791678 Z M 227.406266 78.390637 L 257.583352 65.401053 L 257.583352 205.000021 L 213.786474 166.61981 L 213.786474 153.781267 L 143.619803 92.598972 L 143.619803 65.203137 L 227.406266 138.593766 Z M 135.416677 205.000021 L 135.416677 100.802097 L 205.583348 161.984393 L 205.583348 174.822935 L 165.593762 139.812516 L 165.593762 205.000021 Z M 135.416677 205.000021 " stroke="#7289da" stroke-width="1.375" stroke-opacity="1" stroke-miterlimit="4"/></svg>