<svg width="718" height="462" viewBox="0 0 718 462" fill="none" xmlns="http://www.w3.org/2000/svg">
<path d="M359 1C303.772 1 259 45.7716 259 101C259 156.228 303.772 201 359 201C414.228 201 459 156.228 459 101C459 45.7716 414.228 1 359 1Z" fill="#7289DA"/>
<path d="M404.221 56.4234C395.383 52.3629 386.171 49.5019 376.59 47.8404C376.392 47.806 376.245 47.8777 376.148 48.0528C374.951 50.1734 373.628 52.9512 372.704 55.1235C362.359 53.5538 352.014 53.5538 341.669 55.1235C340.636 52.7015 339.471 50.3427 338.174 48.0528C338.074 47.8806 337.927 47.8089 337.732 47.8404C328.188 49.4876 318.896 52.3744 310.101 56.4234C310.02 56.4521 309.963 56.5038 309.92 56.5755C292.327 82.8869 287.497 108.553 289.864 133.897C289.873 134.018 289.95 134.135 290.042 134.213C295.167 138.009 300.574 141.347 306.261 144.228C311.952 147.106 317.843 149.485 323.938 151.361C324.136 151.425 324.294 151.37 324.412 151.201C327.026 147.634 329.35 143.875 331.353 139.917C331.448 139.728 331.419 139.562 331.267 139.415C331.224 139.375 331.172 139.344 331.115 139.323C327.453 137.914 323.924 136.23 320.526 134.27C320.429 134.216 320.363 134.132 320.331 134.023C320.297 133.917 320.305 133.811 320.357 133.71C320.386 133.647 320.429 133.593 320.483 133.55C321.198 133.013 321.909 132.454 322.589 131.894C322.721 131.788 322.865 131.768 323.02 131.834C345.239 141.989 369.292 141.989 391.242 131.834C391.402 131.765 391.552 131.785 391.689 131.894C392.37 132.454 393.081 133.013 393.796 133.55C393.853 133.593 393.899 133.647 393.931 133.71C393.962 133.776 393.974 133.845 393.971 133.92C393.968 133.992 393.948 134.061 393.911 134.121C393.873 134.184 393.824 134.233 393.761 134.27C390.369 136.25 386.837 137.929 383.164 139.315C383.04 139.358 382.954 139.444 382.908 139.567C382.868 139.688 382.877 139.806 382.934 139.917C384.972 143.866 387.305 147.634 389.867 151.201C389.985 151.37 390.143 151.425 390.341 151.361C396.444 149.49 402.347 147.114 408.043 144.236C413.742 141.355 419.157 138.015 424.285 134.213C424.397 134.135 424.455 134.032 424.463 133.897C427.298 104.598 419.723 79.1449 404.39 56.5841C404.359 56.5066 404.301 56.4521 404.221 56.4234ZM334.67 118.461C327.976 118.461 322.469 112.315 322.469 104.776C322.469 97.2292 327.872 91.0796 334.67 91.0796C341.517 91.0796 346.972 97.278 346.869 104.776C346.869 112.315 341.466 118.461 334.67 118.461ZM379.769 118.461C373.086 118.461 367.57 112.315 367.57 104.776C367.57 97.2292 372.974 91.0796 379.769 91.0796C386.616 91.0796 392.08 97.278 391.971 104.776C391.971 112.315 386.616 118.461 379.769 118.461Z" fill="white"/>
<path d="M40.9269 47.804H162.527C165.992 47.804 169.312 49.1771 171.763 51.6244C174.213 54.0717 175.589 57.392 175.589 60.8544V147.822C175.589 151.281 174.213 154.601 171.763 157.049C169.312 159.496 165.992 160.872 162.527 160.872H40.9269C37.4616 160.872 34.1413 159.496 31.691 157.049C29.2407 154.601 27.8646 151.281 27.8646 147.822V60.8544C27.8646 57.392 29.2407 54.0717 31.691 51.6244C34.1413 49.1771 37.4616 47.804 40.9269 47.804Z" fill="white"/>
<path d="M100 1C44.7621 1 0 45.7621 0 101C0 156.238 44.7621 201 100 201C155.238 201 200 156.238 200 101C199.914 45.7621 155.152 1 100 1ZM158.354 78.4888C158.354 78.4888 160.088 116.758 130.996 140.48C87.4467 175.893 40.4326 147.147 40.4326 147.147C40.4326 147.147 51.8614 147.322 61.991 144.638C72.0348 141.953 79.3087 135.372 79.3087 135.372C79.3087 135.372 68.312 133.12 62.5977 128.965C56.8833 124.81 54.6313 116.844 54.6313 116.844C54.6313 116.844 58.4428 117.19 60.7807 117.104C63.2043 117.019 66.06 115.891 66.06 115.891C66.06 115.891 58.1824 114.938 50.8227 106.714C45.0225 100.222 45.4545 89.3996 45.4545 89.3996C45.4545 89.3996 48.9169 91.477 50.7369 91.9091C52.5539 92.4299 56.105 92.4299 56.105 92.4299C56.105 92.4299 49.1773 88.3609 46.147 77.7105C43.1167 67.1488 48.9169 56.4125 48.9169 56.4125C48.9169 56.4125 59.2211 68.88 74.4585 76.8434C89.6958 84.8098 104.069 84.5494 104.069 84.5494C104.069 84.5494 101.992 78.2283 105.629 68.88C109.266 59.5286 117.489 52.7756 130.043 51.8227C142.599 50.784 150.651 60.3069 150.651 60.3069C150.651 60.3069 154.545 59.6145 158.961 57.9691C163.376 56.4125 167.791 54.3321 167.791 54.3321C167.791 54.3321 166.235 59.0966 163.204 62.8194C160.174 66.5421 156.797 68.7912 156.797 68.7912C156.797 68.7912 160.781 68.5337 164.761 67.4062C168.744 66.2817 170.91 65.1572 170.91 65.1572C166.32 72.7744 158.354 78.4888 158.354 78.4888Z" fill="#7289DA"/>
<g clip-path="url(#clip0_309_40)">
<path d="M573.437 42.7563H662.627C665.069 42.7563 667.408 43.7251 669.135 45.448C670.862 47.173 671.831 49.5126 671.831 51.9501V149.156C671.831 151.596 670.862 153.933 669.135 155.658C667.408 157.383 665.069 158.352 662.627 158.352H573.437C570.996 158.352 568.654 157.383 566.927 155.658C565.202 153.933 564.231 151.596 564.231 149.156V51.9501C564.231 49.5126 565.202 47.173 566.927 45.448C568.654 43.7251 570.996 42.7563 573.437 42.7563Z" fill="white"/>
<path d="M636 85.6021C627.452 85.6021 623.625 90.3021 621.49 93.6021V86.7437H605.383C605.594 91.2833 605.383 135.2 605.383 135.2H621.49V108.133C621.49 106.683 621.59 105.235 622.017 104.206C623.183 101.308 625.831 98.3104 630.281 98.3104C636.108 98.3104 638.44 102.756 638.44 109.267V135.196H654.548V107.404C654.548 92.5271 646.6 85.6021 636 85.6021ZM621.485 93.7708H621.381C621.417 93.7146 621.456 93.6625 621.485 93.6062V93.7708Z" fill="#7289DA"/>
<path d="M580.363 86.7437H596.467V135.2H580.363V86.7437Z" fill="#7289DA"/>
<path d="M617.798 -0.104248C562.712 -0.104248 517.896 44.7124 517.896 99.7978C517.896 154.885 562.712 199.702 617.798 199.702C672.885 199.702 717.702 154.885 717.702 99.7978C717.702 44.7124 672.885 -0.104248 617.798 -0.104248ZM670.777 144.985C670.777 149.227 667.252 152.673 662.894 152.673H572.025C567.677 152.673 564.148 149.231 564.148 144.985V53.0583C564.148 48.8124 567.677 45.3728 572.025 45.3728H662.894C667.248 45.3728 670.777 48.8166 670.777 53.0583V144.985Z" fill="#7289DA"/>
<path d="M588.523 63.3833C583.019 63.3833 579.413 66.9979 579.413 71.7541C579.413 76.4021 582.911 80.125 588.311 80.125H588.415C594.031 80.125 597.529 76.4021 597.529 71.7541C597.421 67.0021 594.036 63.3833 588.523 63.3833Z" fill="#7289DA"/>
</g>
<rect x="167.714" y="302" width="145.714" height="120" fill="white"/>
<path d="M242 262C240.364 262 238.729 262.04 237.096 262.121C235.46 262.201 233.827 262.321 232.2 262.482C230.57 262.643 228.946 262.844 227.328 263.085C225.709 263.323 224.097 263.604 222.492 263.923C220.888 264.241 219.29 264.6 217.703 264.999C216.116 265.395 214.538 265.831 212.974 266.307C211.407 266.784 209.852 267.294 208.311 267.848C206.773 268.399 205.246 268.987 203.734 269.613C202.222 270.239 200.726 270.902 199.246 271.602C197.765 272.302 196.304 273.037 194.861 273.808C193.418 274.58 191.994 275.387 190.591 276.228C189.188 277.071 187.805 277.946 186.444 278.853C185.084 279.763 183.747 280.707 182.43 281.68C181.116 282.655 179.827 283.663 178.562 284.701C177.296 285.737 176.059 286.808 174.845 287.907C173.632 289.006 172.447 290.134 171.29 291.29C170.134 292.447 169.006 293.632 167.907 294.845C166.808 296.059 165.737 297.296 164.701 298.562C163.663 299.827 162.655 301.116 161.68 302.43C160.707 303.747 159.763 305.084 158.853 306.444C157.946 307.805 157.071 309.188 156.228 310.591C155.387 311.994 154.58 313.418 153.808 314.861C153.037 316.304 152.302 317.765 151.602 319.246C150.902 320.726 150.239 322.222 149.613 323.734C148.987 325.246 148.399 326.773 147.848 328.311C147.294 329.852 146.784 331.407 146.307 332.974C145.831 334.538 145.395 336.116 144.999 337.703C144.6 339.29 144.241 340.888 143.923 342.492C143.604 344.097 143.323 345.709 143.085 347.328C142.844 348.946 142.643 350.57 142.482 352.2C142.321 353.827 142.201 355.46 142.121 357.096C142.04 358.729 142 360.364 142 362C142 363.639 142.04 365.274 142.121 366.907C142.201 368.543 142.321 370.176 142.482 371.803C142.643 373.433 142.844 375.057 143.085 376.675C143.323 378.294 143.604 379.906 143.923 381.51C144.241 383.115 144.6 384.713 144.999 386.3C145.395 387.887 145.831 389.465 146.307 391.029C146.784 392.596 147.294 394.148 147.848 395.689C148.399 397.23 148.987 398.757 149.613 400.269C150.239 401.781 150.902 403.276 151.602 404.757C152.302 406.235 153.037 407.698 153.808 409.142C154.58 410.585 155.387 412.009 156.228 413.412C157.071 414.815 157.946 416.198 158.853 417.558C159.763 418.919 160.707 420.256 161.68 421.57C162.655 422.884 163.663 424.176 164.701 425.441C165.737 426.707 166.808 427.944 167.907 429.157C169.006 430.368 170.134 431.553 171.29 432.713C172.447 433.869 173.632 434.997 174.845 436.096C176.059 437.195 177.296 438.263 178.562 439.301C179.827 440.34 181.116 441.347 182.43 442.323C183.747 443.296 185.084 444.24 186.444 445.147C187.805 446.056 189.188 446.932 190.591 447.775C191.994 448.616 193.418 449.423 194.861 450.194C196.304 450.963 197.765 451.701 199.246 452.401C200.726 453.098 202.222 453.764 203.734 454.39C205.246 455.015 206.773 455.604 208.311 456.155C209.852 456.706 211.407 457.219 212.974 457.696C214.538 458.169 216.116 458.605 217.703 459.004C219.29 459.403 220.888 459.762 222.492 460.08C224.097 460.399 225.709 460.68 227.328 460.918C228.946 461.159 230.57 461.36 232.2 461.521C233.827 461.681 235.46 461.799 237.096 461.879C238.729 461.96 240.364 462 242 462C243.639 462 245.274 461.96 246.907 461.879C248.543 461.799 250.176 461.681 251.803 461.521C253.433 461.36 255.057 461.159 256.675 460.918C258.294 460.68 259.906 460.399 261.51 460.08C263.115 459.762 264.713 459.403 266.3 459.004C267.887 458.605 269.465 458.169 271.029 457.696C272.596 457.219 274.148 456.706 275.689 456.155C277.23 455.604 278.757 455.015 280.269 454.39C281.781 453.764 283.276 453.098 284.757 452.401C286.235 451.701 287.698 450.963 289.142 450.194C290.585 449.423 292.009 448.616 293.412 447.775C294.815 446.932 296.198 446.056 297.558 445.147C298.919 444.24 300.256 443.296 301.57 442.323C302.884 441.347 304.176 440.34 305.441 439.301C306.707 438.263 307.944 437.195 309.157 436.096C310.368 434.997 311.553 433.869 312.713 432.713C313.869 431.553 314.997 430.368 316.096 429.157C317.195 427.944 318.263 426.707 319.301 425.441C320.34 424.176 321.347 422.884 322.323 421.57C323.296 420.256 324.24 418.919 325.147 417.558C326.056 416.198 326.932 414.815 327.775 413.412C328.616 412.009 329.423 410.585 330.194 409.142C330.963 407.698 331.701 406.235 332.401 404.757C333.098 403.276 333.764 401.781 334.39 400.269C335.015 398.757 335.604 397.23 336.155 395.689C336.706 394.148 337.219 392.596 337.696 391.029C338.169 389.465 338.605 387.887 339.004 386.3C339.403 384.713 339.762 383.115 340.08 381.51C340.399 379.906 340.68 378.294 340.918 376.675C341.159 375.057 341.36 373.433 341.521 371.803C341.681 370.176 341.799 368.543 341.879 366.907C341.96 365.274 342 363.639 342 362C342 360.364 341.96 358.729 341.879 357.093C341.799 355.46 341.679 353.827 341.518 352.197C341.357 350.57 341.156 348.946 340.915 347.328C340.674 345.709 340.396 344.097 340.074 342.49C339.756 340.885 339.397 339.29 338.998 337.703C338.602 336.113 338.163 334.538 337.69 332.971C337.213 331.404 336.7 329.852 336.149 328.311C335.598 326.77 335.01 325.243 334.381 323.731C333.756 322.219 333.093 320.724 332.393 319.243C331.692 317.765 330.958 316.302 330.186 314.861C329.414 313.418 328.608 311.991 327.767 310.588C326.923 309.185 326.048 307.802 325.138 306.442C324.231 305.081 323.287 303.744 322.315 302.43C321.339 301.116 320.332 299.824 319.293 298.559C318.254 297.296 317.187 296.056 316.087 294.843C314.988 293.632 313.861 292.447 312.704 291.29C311.545 290.131 310.36 289.003 309.149 287.904C307.935 286.805 306.698 285.737 305.433 284.699C304.167 283.66 302.879 282.655 301.562 281.68C300.247 280.704 298.91 279.763 297.55 278.853C296.19 277.944 294.806 277.068 293.403 276.228C292 275.387 290.577 274.58 289.133 273.808C287.69 273.037 286.229 272.302 284.751 271.602C283.271 270.902 281.776 270.239 280.263 269.613C278.751 268.987 277.224 268.396 275.686 267.845C274.145 267.294 272.59 266.781 271.026 266.307C269.459 265.831 267.884 265.395 266.294 264.999C264.707 264.6 263.112 264.241 261.508 263.923C259.903 263.604 258.291 263.323 256.672 263.085C255.054 262.844 253.43 262.643 251.803 262.482C250.173 262.321 248.543 262.201 246.907 262.121C245.274 262.04 243.639 262 242 262ZM195.94 312.657H288.063C289.039 312.657 290.006 312.743 290.967 312.915C291.925 313.088 292.864 313.343 293.779 313.682C294.692 314.02 295.57 314.436 296.411 314.933C297.251 315.426 298.041 315.992 298.781 316.629C299.518 317.263 300.196 317.96 300.813 318.715C301.43 319.472 301.972 320.276 302.445 321.131C302.916 321.983 303.309 322.873 303.625 323.794C303.938 324.718 304.167 325.662 304.313 326.626C303.002 327.344 252.376 356.533 249.033 358.439C247.96 359.044 246.83 359.506 245.636 359.819C244.445 360.135 243.234 360.29 242 360.29C240.769 360.29 239.558 360.135 238.367 359.819C237.173 359.506 236.043 359.044 234.969 358.439C231.69 356.565 180.938 327.657 179.689 326.876C179.819 325.9 180.037 324.945 180.341 324.006C180.642 323.071 181.027 322.167 181.494 321.3C181.959 320.431 182.499 319.613 183.113 318.841C183.724 318.072 184.401 317.363 185.145 316.715C185.885 316.066 186.677 315.489 187.523 314.982C188.367 314.476 189.251 314.052 190.172 313.705C191.093 313.357 192.04 313.096 193.007 312.921C193.977 312.746 194.953 312.657 195.94 312.657ZM304.5 394.909C304.5 395.445 304.474 395.982 304.42 396.518C304.368 397.052 304.288 397.586 304.181 398.114C304.075 398.642 303.946 399.161 303.788 399.678C303.633 400.192 303.45 400.697 303.246 401.196C303.039 401.692 302.807 402.177 302.554 402.651C302.302 403.127 302.024 403.586 301.725 404.034C301.427 404.482 301.105 404.915 300.764 405.331C300.422 405.747 300.061 406.143 299.682 406.525C299.3 406.906 298.901 407.265 298.485 407.607C298.069 407.948 297.639 408.27 297.191 408.568C296.743 408.866 296.281 409.145 295.808 409.397C295.334 409.653 294.847 409.882 294.35 410.089C293.854 410.295 293.349 410.476 292.832 410.634C292.319 410.789 291.796 410.921 291.268 411.027C290.74 411.131 290.209 411.211 289.676 411.265C289.139 411.317 288.602 411.346 288.063 411.346H195.94C195.4 411.346 194.864 411.317 194.327 411.265C193.794 411.211 193.26 411.131 192.735 411.027C192.207 410.921 191.684 410.789 191.171 410.634C190.654 410.476 190.149 410.295 189.653 410.089C189.153 409.882 188.668 409.653 188.195 409.397C187.719 409.145 187.259 408.866 186.812 408.568C186.364 408.27 185.934 407.948 185.518 407.607C185.101 407.265 184.703 406.906 184.321 406.525C183.942 406.143 183.581 405.747 183.239 405.331C182.898 404.915 182.576 404.482 182.278 404.034C181.979 403.586 181.701 403.127 181.448 402.651C181.193 402.177 180.963 401.692 180.757 401.196C180.55 400.697 180.369 400.192 180.215 399.678C180.057 399.161 179.925 398.642 179.821 398.114C179.715 397.586 179.635 397.052 179.583 396.518C179.529 395.982 179.503 395.445 179.5 394.909V334.346L231.753 364.158C232.53 364.6 233.334 364.993 234.163 365.332C234.992 365.67 235.842 365.954 236.708 366.184C237.572 366.413 238.45 366.586 239.34 366.703C240.229 366.818 241.122 366.875 242.017 366.875C242.913 366.875 243.805 366.818 244.695 366.703C245.584 366.586 246.459 366.413 247.326 366.184C248.193 365.954 249.042 365.67 249.871 365.332C250.701 364.993 251.504 364.6 252.282 364.158L304.5 334.096V394.909Z" fill="#7289DA"/>
<g clip-path="url(#clip1_309_40)">
<rect x="413.286" y="304.857" width="131.429" height="114.286" fill="white"/>
<path fill-rule="evenodd" clip-rule="evenodd" d="M479 462C534.229 462 579 417.229 579 362C579 306.771 534.229 262 479 262C423.771 262 379 306.771 379 362C379 417.229 423.771 462 479 462ZM532.204 322.823L513.994 403.471C513.894 403.91 513.74 404.331 513.538 404.721C513.41 404.963 513.267 405.194 513.106 405.413C512.49 406.25 511.625 406.896 510.61 407.246C508.906 407.833 507.019 407.494 505.623 406.352L481.825 386.881L471.842 404.852C470.819 406.692 468.79 407.735 466.698 407.494C464.608 407.254 462.867 405.779 462.29 403.756L452.754 370.383L429.85 365.802C427.596 365.352 425.904 363.475 425.69 361.188C425.677 361.044 425.669 360.902 425.667 360.76C425.665 360.596 425.671 360.433 425.683 360.273C425.842 358.342 427.073 356.625 428.915 355.877L525.142 316.867C525.21 316.838 525.279 316.81 525.35 316.785C526.133 316.5 526.948 316.415 527.731 316.506C528.304 316.573 528.871 316.735 529.41 317C529.467 317.025 529.521 317.054 529.575 317.083C530.29 317.463 530.919 318.01 531.4 318.702C531.648 319.058 531.852 319.446 532.004 319.854C532.188 320.342 532.292 320.846 532.323 321.348C532.354 321.833 532.317 322.327 532.206 322.821L532.204 322.823ZM502.888 343.088L476.275 375.617C476.052 375.888 475.86 376.175 475.702 376.473L468.844 388.819L462.96 368.225L502.888 343.088Z" fill="#7289DA"/>
</g>
<defs>
<clipPath id="clip0_309_40">
<rect width="200" height="200" fill="white" transform="translate(518)"/>
</clipPath>
<clipPath id="clip1_309_40">
<rect width="200" height="200" fill="white" transform="translate(379 262)"/>
</clipPath>
</defs>
</svg>
