<svg xmlns="http://www.w3.org/2000/svg" xmlns:xlink="http://www.w3.org/1999/xlink" width="500" zoomAndPan="magnify" viewBox="0 0 375 374.999991" height="500" preserveAspectRatio="xMidYMid meet" version="1.0"><defs><clipPath id="468bfd25bc"><path d="M 39.34375 21 L 335.59375 21 L 335.59375 354 L 39.34375 354 Z M 39.34375 21 " clip-rule="nonzero"/></clipPath><clipPath id="636d932fb5"><path d="M 187 104 L 335.59375 104 L 335.59375 271 L 187 271 Z M 187 104 " clip-rule="nonzero"/></clipPath></defs><g clip-path="url(#468bfd25bc)"><path fill="#afbef4" d="M 335.128906 119.128906 C 335.128906 113.546875 333.925781 108.613281 331.511719 104.378906 C 329.140625 100.21875 325.59375 96.730469 320.832031 93.972656 C 281.503906 71.296875 242.15625 48.695312 202.839844 26 C 192.242188 19.882812 181.96875 20.105469 171.453125 26.3125 C 155.804688 35.539062 77.441406 80.433594 54.085938 93.957031 C 44.476562 99.523438 39.796875 108.042969 39.792969 119.117188 C 39.777344 164.71875 39.792969 210.308594 39.777344 255.910156 C 39.78125 261.363281 40.925781 266.195312 43.230469 270.367188 C 45.605469 274.65625 49.207031 278.25 54.078125 281.066406 C 77.429688 294.589844 155.792969 339.472656 171.445312 348.707031 C 181.972656 354.925781 192.25 355.144531 202.84375 349.019531 C 242.160156 326.324219 281.523438 303.71875 320.847656 281.058594 C 325.726562 278.238281 329.320312 274.644531 331.699219 270.355469 C 334 266.195312 335.144531 261.351562 335.144531 255.886719 C 335.144531 255.886719 335.144531 164.730469 335.132812 119.128906 " fill-opacity="1" fill-rule="nonzero"/></g><path fill="#afbef4" d="M 187.910156 187.066406 L 43.234375 270.367188 C 45.605469 274.652344 49.207031 278.246094 54.078125 281.066406 C 77.429688 294.589844 155.792969 339.472656 171.445312 348.707031 C 181.972656 354.921875 192.25 355.144531 202.84375 349.019531 C 242.160156 326.320312 281.523438 303.71875 320.847656 281.054688 C 325.726562 278.234375 329.320312 274.640625 331.699219 270.355469 L 187.914062 187.066406 " fill-opacity="1" fill-rule="nonzero"/><path fill="#afbef4" d="M 145.058594 211.742188 C 153.476562 226.441406 169.304688 236.355469 187.460938 236.355469 C 205.730469 236.355469 221.644531 226.3125 230.023438 211.464844 L 187.910156 187.066406 L 145.058594 211.742188 " fill-opacity="1" fill-rule="nonzero"/><g clip-path="url(#636d932fb5)"><path fill="#afbef4" d="M 335.128906 119.128906 C 335.128906 113.546875 333.925781 108.613281 331.511719 104.378906 L 187.910156 187.066406 L 331.695312 270.355469 C 333.996094 266.195312 335.140625 261.351562 335.140625 255.886719 C 335.140625 255.886719 335.140625 164.730469 335.128906 119.128906 " fill-opacity="1" fill-rule="nonzero"/></g><path fill="#ffffff" d="M 327.222656 193.019531 L 315.992188 193.019531 L 315.992188 204.253906 L 304.746094 204.253906 L 304.746094 193.019531 L 293.511719 193.019531 L 293.511719 181.785156 L 304.746094 181.785156 L 304.746094 170.554688 L 315.992188 170.554688 L 315.992188 181.785156 L 327.222656 181.785156 L 327.222656 193.019531 " fill-opacity="1" fill-rule="nonzero"/><path fill="#ffffff" d="M 286.222656 193.019531 L 274.988281 193.019531 L 274.988281 204.253906 L 263.753906 204.253906 L 263.753906 193.019531 L 252.523438 193.019531 L 252.523438 181.785156 L 263.753906 181.785156 L 263.753906 170.554688 L 274.988281 170.554688 L 274.988281 181.785156 L 286.222656 181.785156 L 286.222656 193.019531 " fill-opacity="1" fill-rule="nonzero"/><path fill="#ffffff" d="M 230.023438 211.464844 C 221.644531 226.3125 205.730469 236.355469 187.460938 236.355469 C 169.304688 236.355469 153.476562 226.441406 145.058594 211.742188 C 140.96875 204.597656 138.617188 196.335938 138.617188 187.507812 C 138.617188 160.535156 160.484375 138.667969 187.460938 138.667969 C 205.5 138.667969 221.238281 148.457031 229.699219 163.007812 L 272.386719 138.425781 C 255.421875 109.132812 223.746094 89.425781 187.460938 89.425781 C 133.289062 89.425781 89.375 133.339844 89.375 187.507812 C 89.375 205.28125 94.101562 221.945312 102.363281 236.320312 C 119.289062 265.765625 151.0625 285.597656 187.460938 285.597656 C 223.929688 285.597656 255.746094 265.6875 272.640625 236.160156 L 230.023438 211.464844 " fill-opacity="1" fill-rule="nonzero"/></svg>