<svg xmlns="http://www.w3.org/2000/svg" xmlns:xlink="http://www.w3.org/1999/xlink" width="500" zoomAndPan="magnify" viewBox="0 0 375 374.999991" height="500" preserveAspectRatio="xMidYMid meet" version="1.0"><defs><clipPath id="9e37719172"><path d="M 51.382812 51.382812 L 323.632812 51.382812 L 323.632812 323.632812 L 51.382812 323.632812 Z M 51.382812 51.382812 " clip-rule="nonzero"/></clipPath><clipPath id="334ff27e79"><path d="M 94 117.105469 L 280 117.105469 L 280 258.105469 L 94 258.105469 Z M 94 117.105469 " clip-rule="nonzero"/></clipPath></defs><g clip-path="url(#9e37719172)"><path fill="#7289da" d="M 187.507812 51.382812 C 112.328125 51.382812 51.382812 112.328125 51.382812 187.507812 C 51.382812 262.6875 112.328125 323.632812 187.507812 323.632812 C 262.6875 323.632812 323.632812 262.6875 323.632812 187.507812 C 323.632812 112.328125 262.6875 51.382812 187.507812 51.382812 " fill-opacity="1" fill-rule="nonzero"/></g><g clip-path="url(#334ff27e79)"><path fill="#ffffff" d="M 251.035156 128.742188 C 239.003906 123.214844 226.464844 119.320312 213.421875 117.058594 C 213.152344 117.011719 212.953125 117.109375 212.820312 117.347656 C 211.191406 120.234375 209.390625 124.015625 208.132812 126.972656 C 194.050781 124.835938 179.96875 124.835938 165.886719 126.972656 C 164.480469 123.675781 162.894531 120.464844 161.128906 117.347656 C 160.992188 117.113281 160.792969 117.015625 160.527344 117.058594 C 147.535156 119.300781 134.886719 123.230469 122.914062 128.742188 C 122.804688 128.78125 122.726562 128.851562 122.667969 128.949219 C 98.71875 164.765625 92.144531 199.703125 95.367188 234.203125 C 95.378906 234.367188 95.484375 234.527344 95.609375 234.632812 C 102.585938 239.800781 109.945312 244.34375 117.6875 248.265625 C 125.433594 252.183594 133.453125 255.421875 141.75 257.976562 C 142.019531 258.0625 142.234375 257.988281 142.394531 257.757812 C 145.953125 252.902344 149.117188 247.785156 151.84375 242.398438 C 151.972656 242.140625 151.933594 241.914062 151.726562 241.714844 C 151.667969 241.660156 151.597656 241.617188 151.519531 241.589844 C 146.535156 239.671875 141.730469 237.378906 137.105469 234.710938 C 136.972656 234.636719 136.882812 234.523438 136.839844 234.375 C 136.792969 234.230469 136.804688 234.085938 136.875 233.949219 C 136.914062 233.863281 136.972656 233.789062 137.046875 233.730469 C 138.019531 233 138.988281 232.238281 139.914062 231.476562 C 140.09375 231.332031 140.289062 231.304688 140.5 231.394531 C 170.746094 245.21875 203.488281 245.21875 233.367188 231.394531 C 233.585938 231.300781 233.789062 231.328125 233.976562 231.476562 C 234.902344 232.238281 235.871094 233 236.84375 233.730469 C 236.921875 233.789062 236.984375 233.863281 237.027344 233.949219 C 237.070312 234.039062 237.085938 234.132812 237.082031 234.234375 C 237.078125 234.332031 237.050781 234.425781 237 234.507812 C 236.949219 234.59375 236.882812 234.660156 236.796875 234.710938 C 232.179688 237.40625 227.371094 239.691406 222.371094 241.578125 C 222.203125 241.636719 222.085938 241.753906 222.023438 241.925781 C 221.96875 242.085938 221.980469 242.246094 222.058594 242.398438 C 224.832031 247.773438 228.007812 252.902344 231.496094 257.757812 C 231.65625 257.988281 231.871094 258.0625 232.140625 257.976562 C 240.449219 255.429688 248.484375 252.195312 256.238281 248.277344 C 263.996094 244.355469 271.367188 239.808594 278.347656 234.632812 C 278.5 234.527344 278.578125 234.386719 278.589844 234.203125 C 282.449219 194.320312 272.136719 159.671875 251.265625 128.960938 C 251.222656 128.855469 251.144531 128.78125 251.035156 128.742188 Z M 156.359375 213.191406 C 147.246094 213.191406 139.75 204.824219 139.75 194.5625 C 139.75 184.289062 147.105469 175.917969 156.359375 175.917969 C 165.679688 175.917969 173.105469 184.355469 172.964844 194.5625 C 172.964844 204.824219 165.609375 213.191406 156.359375 213.191406 Z M 217.75 213.191406 C 208.652344 213.191406 201.144531 204.824219 201.144531 194.5625 C 201.144531 184.289062 208.5 175.917969 217.75 175.917969 C 227.070312 175.917969 234.507812 184.355469 234.359375 194.5625 C 234.359375 204.824219 227.070312 213.191406 217.75 213.191406 Z M 217.75 213.191406 " fill-opacity="1" fill-rule="nonzero"/></g></svg>