<svg width="200" height="200" viewBox="0 0 200 200" fill="none" xmlns="http://www.w3.org/2000/svg">
<g id="Discord">
<g id="Group">
<path id="Vector" d="M100 0C44.7716 0 0 44.7716 0 100C0 155.228 44.7716 200 100 200C155.228 200 200 155.228 200 100C200 44.7716 155.228 0 100 0Z" fill="#7289DA"/>
</g>
<g id="Group_2">
<path id="Vector_2" d="M145.221 55.4234C136.383 51.3629 127.171 48.5019 117.59 46.8404C117.392 46.806 117.245 46.8777 117.148 47.0528C115.951 49.1734 114.628 51.9512 113.704 54.1235C103.359 52.5538 93.0143 52.5538 82.6694 54.1235C81.6363 51.7015 80.4712 49.3427 79.1742 47.0528C79.0737 46.8806 78.9274 46.8089 78.7323 46.8404C69.188 48.4876 59.8962 51.3744 51.1008 55.4234C51.0205 55.4521 50.9631 55.5038 50.9201 55.5755C33.3265 81.8869 28.497 107.553 30.8644 132.897C30.873 133.018 30.9505 133.135 31.0423 133.213C36.1674 137.009 41.5737 140.347 47.2613 143.228C52.9517 146.106 58.843 148.485 64.9381 150.361C65.1361 150.425 65.2939 150.37 65.4116 150.201C68.0258 146.634 70.3501 142.875 72.3531 138.917C72.4478 138.728 72.4191 138.562 72.267 138.415C72.224 138.375 72.1723 138.344 72.115 138.323C68.4533 136.914 64.9237 135.23 61.5261 133.27C61.4285 133.216 61.3625 133.132 61.331 133.023C61.2965 132.917 61.3052 132.811 61.3568 132.71C61.3855 132.647 61.4285 132.593 61.4831 132.55C62.1976 132.013 62.9093 131.454 63.5894 130.894C63.7214 130.788 63.8648 130.768 64.0198 130.834C86.2392 140.989 110.292 140.989 132.242 130.834C132.402 130.765 132.552 130.785 132.689 130.894C133.37 131.454 134.081 132.013 134.796 132.55C134.853 132.593 134.899 132.647 134.931 132.71C134.962 132.776 134.974 132.845 134.971 132.92C134.968 132.992 134.948 133.061 134.911 133.121C134.873 133.184 134.824 133.233 134.761 133.27C131.369 135.25 127.837 136.929 124.164 138.315C124.04 138.358 123.954 138.444 123.908 138.567C123.868 138.688 123.877 138.806 123.934 138.917C125.972 142.866 128.305 146.634 130.867 150.201C130.985 150.37 131.143 150.425 131.341 150.361C137.444 148.49 143.347 146.114 149.043 143.236C154.742 140.355 160.157 137.015 165.285 133.213C165.397 133.135 165.455 133.032 165.463 132.897C168.298 103.598 160.723 78.1449 145.39 55.5841C145.359 55.5066 145.301 55.4521 145.221 55.4234ZM75.6704 117.461C68.9756 117.461 63.4688 111.315 63.4688 103.776C63.4688 96.2292 68.8723 90.0796 75.6704 90.0796C82.5173 90.0796 87.9724 96.278 87.8691 103.776C87.8691 111.315 82.4656 117.461 75.6704 117.461ZM120.769 117.461C114.086 117.461 108.57 111.315 108.57 103.776C108.57 96.2292 113.974 90.0796 120.769 90.0796C127.616 90.0796 133.08 96.278 132.971 103.776C132.971 111.315 127.616 117.461 120.769 117.461Z" fill="white"/>
</g>
</g>
</svg>
