<svg width="367" height="600" viewBox="0 0 367 600" fill="none" xmlns="http://www.w3.org/2000/svg">
<rect width="366.667" height="600" fill="#D9D9D9"/>
<path d="M80 290V255.35H103.4V261.9H87.8V268.7H101.65V275.1H87.8V283.45H104.55V290H80ZM124.272 276.05C124.272 273.65 123.956 271.95 123.322 270.95C122.722 269.95 121.672 269.45 120.172 269.45C119.706 269.45 119.222 269.483 118.722 269.55C118.222 269.583 117.739 269.633 117.272 269.7V290H109.822V264.6C110.456 264.433 111.189 264.267 112.022 264.1C112.889 263.9 113.789 263.733 114.722 263.6C115.689 263.433 116.672 263.317 117.672 263.25C118.672 263.15 119.656 263.1 120.622 263.1C122.522 263.1 124.056 263.35 125.222 263.85C126.422 264.317 127.406 264.883 128.172 265.55C129.239 264.783 130.456 264.183 131.822 263.75C133.222 263.317 134.506 263.1 135.672 263.1C137.772 263.1 139.489 263.4 140.822 264C142.189 264.567 143.272 265.383 144.072 266.45C144.872 267.517 145.422 268.783 145.722 270.25C146.022 271.717 146.172 273.35 146.172 275.15V290H138.722V276.05C138.722 273.65 138.406 271.95 137.772 270.95C137.172 269.95 136.122 269.45 134.622 269.45C134.222 269.45 133.656 269.55 132.922 269.75C132.222 269.95 131.639 270.2 131.172 270.5C131.406 271.267 131.556 272.083 131.622 272.95C131.689 273.783 131.722 274.683 131.722 275.65V290H124.272V276.05ZM176.999 290.45C175.099 290.45 173.199 290.383 171.299 290.25C169.433 290.15 167.483 289.883 165.449 289.45V255.85C167.049 255.55 168.799 255.333 170.699 255.2C172.599 255.033 174.366 254.95 175.999 254.95C178.199 254.95 180.216 255.117 182.049 255.45C183.916 255.75 185.516 256.283 186.849 257.05C188.183 257.817 189.216 258.833 189.949 260.1C190.716 261.333 191.099 262.867 191.099 264.7C191.099 267.467 189.766 269.65 187.099 271.25C189.299 272.083 190.799 273.217 191.599 274.65C192.399 276.083 192.799 277.7 192.799 279.5C192.799 283.133 191.466 285.867 188.799 287.7C186.166 289.533 182.233 290.45 176.999 290.45ZM173.049 274.9V283.85C173.616 283.917 174.233 283.967 174.899 284C175.566 284.033 176.299 284.05 177.099 284.05C179.433 284.05 181.316 283.717 182.749 283.05C184.183 282.383 184.899 281.15 184.899 279.35C184.899 277.75 184.299 276.617 183.099 275.95C181.899 275.25 180.183 274.9 177.949 274.9H173.049ZM173.049 268.95H176.849C179.249 268.95 180.966 268.65 181.999 268.05C183.033 267.417 183.549 266.417 183.549 265.05C183.549 263.65 183.016 262.667 181.949 262.1C180.883 261.533 179.316 261.25 177.249 261.25C176.583 261.25 175.866 261.267 175.099 261.3C174.333 261.3 173.649 261.333 173.049 261.4V268.95ZM214.393 270.3C213.726 270.133 212.943 269.967 212.043 269.8C211.143 269.6 210.176 269.5 209.143 269.5C208.676 269.5 208.11 269.55 207.443 269.65C206.81 269.717 206.326 269.8 205.993 269.9V290H198.543V265.1C199.876 264.633 201.443 264.2 203.243 263.8C205.076 263.367 207.11 263.15 209.343 263.15C209.743 263.15 210.226 263.183 210.793 263.25C211.36 263.283 211.926 263.35 212.493 263.45C213.06 263.517 213.626 263.617 214.193 263.75C214.76 263.85 215.243 263.983 215.643 264.15L214.393 270.3ZM217.898 277.05C217.898 274.717 218.248 272.683 218.948 270.95C219.682 269.183 220.632 267.717 221.798 266.55C222.965 265.383 224.298 264.5 225.798 263.9C227.332 263.3 228.898 263 230.498 263C234.232 263 237.182 264.15 239.348 266.45C241.515 268.717 242.598 272.067 242.598 276.5C242.598 276.933 242.582 277.417 242.548 277.95C242.515 278.45 242.482 278.9 242.448 279.3H225.548C225.715 280.833 226.432 282.05 227.698 282.95C228.965 283.85 230.665 284.3 232.798 284.3C234.165 284.3 235.498 284.183 236.798 283.95C238.132 283.683 239.215 283.367 240.048 283L241.048 289.05C240.648 289.25 240.115 289.45 239.448 289.65C238.782 289.85 238.032 290.017 237.198 290.15C236.398 290.317 235.532 290.45 234.598 290.55C233.665 290.65 232.732 290.7 231.798 290.7C229.432 290.7 227.365 290.35 225.598 289.65C223.865 288.95 222.415 288 221.248 286.8C220.115 285.567 219.265 284.117 218.698 282.45C218.165 280.783 217.898 278.983 217.898 277.05ZM235.398 274.2C235.365 273.567 235.248 272.95 235.048 272.35C234.882 271.75 234.598 271.217 234.198 270.75C233.832 270.283 233.348 269.9 232.748 269.6C232.182 269.3 231.465 269.15 230.598 269.15C229.765 269.15 229.048 269.3 228.448 269.6C227.848 269.867 227.348 270.233 226.948 270.7C226.548 271.167 226.232 271.717 225.998 272.35C225.798 272.95 225.648 273.567 225.548 274.2H235.398ZM255.498 290C253.798 286.667 252.064 282.767 250.298 278.3C248.564 273.833 246.914 268.967 245.348 263.7H253.248C253.581 265 253.964 266.417 254.398 267.95C254.864 269.45 255.331 270.983 255.798 272.55C256.298 274.083 256.781 275.583 257.248 277.05C257.748 278.517 258.231 279.85 258.698 281.05C259.131 279.85 259.598 278.517 260.098 277.05C260.598 275.583 261.081 274.083 261.548 272.55C262.048 270.983 262.514 269.45 262.948 267.95C263.414 266.417 263.814 265 264.148 263.7H271.848C270.281 268.967 268.614 273.833 266.848 278.3C265.114 282.767 263.398 286.667 261.698 290H255.498ZM273.904 277.05C273.904 274.717 274.254 272.683 274.954 270.95C275.688 269.183 276.638 267.717 277.804 266.55C278.971 265.383 280.304 264.5 281.804 263.9C283.338 263.3 284.904 263 286.504 263C290.238 263 293.188 264.15 295.354 266.45C297.521 268.717 298.604 272.067 298.604 276.5C298.604 276.933 298.588 277.417 298.554 277.95C298.521 278.45 298.488 278.9 298.454 279.3H281.554C281.721 280.833 282.438 282.05 283.704 282.95C284.971 283.85 286.671 284.3 288.804 284.3C290.171 284.3 291.504 284.183 292.804 283.95C294.138 283.683 295.221 283.367 296.054 283L297.054 289.05C296.654 289.25 296.121 289.45 295.454 289.65C294.788 289.85 294.038 290.017 293.204 290.15C292.404 290.317 291.538 290.45 290.604 290.55C289.671 290.65 288.738 290.7 287.804 290.7C285.438 290.7 283.371 290.35 281.604 289.65C279.871 288.95 278.421 288 277.254 286.8C276.121 285.567 275.271 284.117 274.704 282.45C274.171 280.783 273.904 278.983 273.904 277.05ZM291.404 274.2C291.371 273.567 291.254 272.95 291.054 272.35C290.888 271.75 290.604 271.217 290.204 270.75C289.838 270.283 289.354 269.9 288.754 269.6C288.188 269.3 287.471 269.15 286.604 269.15C285.771 269.15 285.054 269.3 284.454 269.6C283.854 269.867 283.354 270.233 282.954 270.7C282.554 271.167 282.238 271.717 282.004 272.35C281.804 272.95 281.654 273.567 281.554 274.2H291.404Z" fill="black"/>
</svg>
