<svg xmlns="http://www.w3.org/2000/svg" xmlns:xlink="http://www.w3.org/1999/xlink" width="500" zoomAndPan="magnify" viewBox="0 0 375 374.999991" height="500" preserveAspectRatio="xMidYMid meet" version="1.0"><defs><clipPath id="3639cd9552"><path d="M 91.03125 109.511719 L 278.53125 109.511719 L 278.53125 267.761719 L 91.03125 267.761719 Z M 91.03125 109.511719 " clip-rule="nonzero"/></clipPath><clipPath id="2ae5a587d5"><path d="M 51.382812 51.382812 L 323.632812 51.382812 L 323.632812 323.632812 L 51.382812 323.632812 Z M 51.382812 51.382812 " clip-rule="nonzero"/></clipPath></defs><g clip-path="url(#3639cd9552)"><path fill="#ffffff" d="M 108.285156 109.511719 L 261.277344 109.511719 C 265.855469 109.511719 270.242188 111.328125 273.476562 114.566406 C 276.710938 117.804688 278.527344 122.195312 278.527344 126.769531 L 278.527344 250.5 C 278.527344 255.078125 276.710938 259.46875 273.476562 262.707031 C 270.242188 265.941406 265.855469 267.761719 261.277344 267.761719 L 108.285156 267.761719 C 103.710938 267.761719 99.324219 265.941406 96.089844 262.707031 C 92.855469 259.46875 91.039062 255.078125 91.039062 250.5 L 91.039062 126.769531 C 91.039062 122.195312 92.855469 117.804688 96.089844 114.566406 C 99.324219 111.328125 103.710938 109.511719 108.285156 109.511719 " fill-opacity="1" fill-rule="nonzero"/></g><g clip-path="url(#2ae5a587d5)"><path fill="#7289da" d="M 187.507812 51.382812 C 185.28125 51.382812 183.054688 51.4375 180.832031 51.546875 C 178.605469 51.65625 176.382812 51.820312 174.167969 52.039062 C 171.949219 52.257812 169.738281 52.53125 167.535156 52.859375 C 165.332031 53.183594 163.136719 53.566406 160.953125 54 C 158.769531 54.433594 156.59375 54.921875 154.433594 55.464844 C 152.273438 56.003906 150.125 56.597656 147.996094 57.246094 C 145.863281 57.894531 143.746094 58.589844 141.648438 59.34375 C 139.554688 60.09375 137.476562 60.894531 135.417969 61.746094 C 133.359375 62.597656 131.324219 63.5 129.308594 64.453125 C 127.292969 65.40625 125.304688 66.40625 123.339844 67.457031 C 121.375 68.507812 119.4375 69.605469 117.527344 70.75 C 115.617188 71.898438 113.734375 73.089844 111.882812 74.324219 C 110.03125 75.5625 108.210938 76.847656 106.417969 78.171875 C 104.628906 79.5 102.875 80.871094 101.152344 82.285156 C 99.429688 83.695312 97.746094 85.152344 96.09375 86.648438 C 94.441406 88.144531 92.828125 89.679688 91.253906 91.253906 C 89.679688 92.828125 88.144531 94.441406 86.648438 96.09375 C 85.152344 97.746094 83.695312 99.429688 82.285156 101.152344 C 80.871094 102.875 79.5 104.628906 78.171875 106.417969 C 76.847656 108.210938 75.5625 110.03125 74.324219 111.882812 C 73.089844 113.734375 71.898438 115.617188 70.75 117.527344 C 69.605469 119.4375 68.507812 121.375 67.457031 123.339844 C 66.40625 125.304688 65.40625 127.292969 64.453125 129.308594 C 63.5 131.324219 62.597656 133.359375 61.746094 135.417969 C 60.894531 137.476562 60.09375 139.554688 59.34375 141.648438 C 58.589844 143.746094 57.894531 145.863281 57.246094 147.996094 C 56.597656 150.125 56.003906 152.273438 55.464844 154.433594 C 54.921875 156.59375 54.433594 158.769531 54 160.953125 C 53.566406 163.136719 53.183594 165.332031 52.859375 167.535156 C 52.53125 169.738281 52.257812 171.949219 52.039062 174.167969 C 51.820312 176.382812 51.65625 178.605469 51.546875 180.832031 C 51.4375 183.054688 51.382812 185.28125 51.382812 187.507812 C 51.382812 189.738281 51.4375 191.964844 51.546875 194.1875 C 51.65625 196.414062 51.820312 198.636719 52.039062 200.851562 C 52.257812 203.070312 52.53125 205.28125 52.859375 207.484375 C 53.183594 209.6875 53.566406 211.882812 54 214.066406 C 54.433594 216.25 54.921875 218.425781 55.464844 220.585938 C 56.003906 222.746094 56.597656 224.894531 57.246094 227.023438 C 57.894531 229.15625 58.589844 231.269531 59.34375 233.367188 C 60.09375 235.464844 60.894531 237.542969 61.746094 239.601562 C 62.597656 241.660156 63.5 243.695312 64.453125 245.710938 C 65.40625 247.722656 66.40625 249.714844 67.457031 251.679688 C 68.507812 253.644531 69.605469 255.582031 70.75 257.492188 C 71.898438 259.402344 73.089844 261.285156 74.324219 263.136719 C 75.5625 264.988281 76.847656 266.808594 78.171875 268.597656 C 79.5 270.386719 80.871094 272.144531 82.285156 273.867188 C 83.695312 275.589844 85.152344 277.273438 86.648438 278.925781 C 88.144531 280.574219 89.679688 282.1875 91.253906 283.765625 C 92.828125 285.339844 94.441406 286.875 96.09375 288.371094 C 97.746094 289.867188 99.429688 291.320312 101.152344 292.734375 C 102.875 294.148438 104.628906 295.519531 106.417969 296.847656 C 108.210938 298.171875 110.03125 299.457031 111.882812 300.691406 C 113.734375 301.929688 115.617188 303.121094 117.527344 304.269531 C 119.4375 305.414062 121.375 306.511719 123.339844 307.5625 C 125.304688 308.609375 127.292969 309.613281 129.308594 310.566406 C 131.324219 311.515625 133.359375 312.421875 135.417969 313.273438 C 137.476562 314.125 139.554688 314.925781 141.648438 315.675781 C 143.746094 316.425781 145.863281 317.125 147.996094 317.773438 C 150.125 318.417969 152.273438 319.011719 154.433594 319.554688 C 156.59375 320.097656 158.769531 320.585938 160.953125 321.019531 C 163.136719 321.453125 165.332031 321.835938 167.535156 322.160156 C 169.738281 322.488281 171.949219 322.761719 174.167969 322.980469 C 176.382812 323.199219 178.605469 323.359375 180.832031 323.46875 C 183.054688 323.578125 185.28125 323.632812 187.507812 323.632812 C 189.738281 323.632812 191.964844 323.578125 194.1875 323.46875 C 196.414062 323.359375 198.636719 323.199219 200.851562 322.980469 C 203.070312 322.761719 205.28125 322.488281 207.484375 322.160156 C 209.6875 321.835938 211.882812 321.453125 214.066406 321.019531 C 216.25 320.585938 218.425781 320.097656 220.585938 319.554688 C 222.746094 319.011719 224.894531 318.417969 227.023438 317.773438 C 229.15625 317.125 231.269531 316.425781 233.367188 315.675781 C 235.464844 314.925781 237.542969 314.125 239.601562 313.273438 C 241.660156 312.421875 243.695312 311.515625 245.710938 310.566406 C 247.722656 309.613281 249.714844 308.609375 251.679688 307.5625 C 253.644531 306.511719 255.582031 305.414062 257.492188 304.269531 C 259.402344 303.121094 261.285156 301.929688 263.136719 300.691406 C 264.988281 299.457031 266.808594 298.171875 268.597656 296.847656 C 270.386719 295.519531 272.144531 294.148438 273.867188 292.734375 C 275.589844 291.320312 277.273438 289.867188 278.925781 288.371094 C 280.574219 286.875 282.1875 285.339844 283.765625 283.765625 C 285.339844 282.1875 286.875 280.574219 288.371094 278.925781 C 289.867188 277.273438 291.320312 275.589844 292.734375 273.867188 C 294.148438 272.144531 295.519531 270.386719 296.847656 268.597656 C 298.171875 266.808594 299.457031 264.988281 300.691406 263.136719 C 301.929688 261.285156 303.121094 259.402344 304.269531 257.492188 C 305.414062 255.582031 306.511719 253.644531 307.5625 251.679688 C 308.609375 249.714844 309.613281 247.722656 310.566406 245.710938 C 311.515625 243.695312 312.421875 241.660156 313.273438 239.601562 C 314.125 237.542969 314.925781 235.464844 315.675781 233.367188 C 316.425781 231.269531 317.125 229.15625 317.773438 227.023438 C 318.417969 224.894531 319.011719 222.746094 319.554688 220.585938 C 320.097656 218.425781 320.585938 216.25 321.019531 214.066406 C 321.453125 211.882812 321.835938 209.6875 322.160156 207.484375 C 322.488281 205.28125 322.761719 203.070312 322.980469 200.851562 C 323.199219 198.636719 323.359375 196.414062 323.46875 194.1875 C 323.578125 191.964844 323.632812 189.738281 323.632812 187.507812 C 323.632812 185.28125 323.578125 183.054688 323.46875 180.828125 C 323.359375 178.605469 323.195312 176.382812 322.976562 174.164062 C 322.757812 171.949219 322.484375 169.738281 322.15625 167.535156 C 321.828125 165.332031 321.449219 163.136719 321.011719 160.949219 C 320.578125 158.765625 320.089844 156.59375 319.546875 154.433594 C 319.007812 152.269531 318.410156 150.125 317.765625 147.992188 C 317.117188 145.859375 316.417969 143.746094 315.667969 141.648438 C 314.917969 139.550781 314.117188 137.472656 313.261719 135.414062 C 312.410156 133.355469 311.507812 131.320312 310.554688 129.304688 C 309.601562 127.292969 308.601562 125.300781 307.550781 123.339844 C 306.5 121.375 305.402344 119.433594 304.257812 117.523438 C 303.109375 115.613281 301.917969 113.730469 300.679688 111.878906 C 299.445312 110.027344 298.160156 108.207031 296.835938 106.417969 C 295.507812 104.628906 294.136719 102.871094 292.722656 101.148438 C 291.308594 99.429688 289.855469 97.742188 288.359375 96.089844 C 286.863281 94.441406 285.328125 92.828125 283.753906 91.253906 C 282.175781 89.675781 280.5625 88.140625 278.914062 86.644531 C 277.261719 85.148438 275.578125 83.695312 273.855469 82.28125 C 272.132812 80.867188 270.378906 79.5 268.585938 78.171875 C 266.796875 76.84375 264.976562 75.5625 263.125 74.324219 C 261.273438 73.085938 259.390625 71.894531 257.480469 70.75 C 255.570312 69.605469 253.632812 68.507812 251.667969 67.457031 C 249.703125 66.40625 247.714844 65.40625 245.703125 64.453125 C 243.6875 63.5 241.652344 62.597656 239.59375 61.746094 C 237.535156 60.894531 235.457031 60.089844 233.363281 59.339844 C 231.265625 58.589844 229.148438 57.890625 227.019531 57.246094 C 224.886719 56.597656 222.742188 56.003906 220.578125 55.464844 C 218.417969 54.921875 216.246094 54.433594 214.0625 54 C 211.878906 53.566406 209.683594 53.183594 207.480469 52.859375 C 205.277344 52.53125 203.066406 52.257812 200.851562 52.039062 C 198.632812 51.820312 196.414062 51.65625 194.1875 51.546875 C 191.964844 51.4375 189.738281 51.382812 187.507812 51.382812 Z M 124.808594 120.339844 L 250.210938 120.339844 C 251.539062 120.339844 252.855469 120.457031 254.164062 120.691406 C 255.46875 120.925781 256.746094 121.273438 257.992188 121.734375 C 259.234375 122.195312 260.429688 122.761719 261.574219 123.4375 C 262.71875 124.109375 263.792969 124.878906 264.800781 125.746094 C 265.804688 126.609375 266.726562 127.558594 267.566406 128.585938 C 268.40625 129.617188 269.144531 130.710938 269.789062 131.875 C 270.429688 133.035156 270.964844 134.246094 271.394531 135.5 C 271.820312 136.757812 272.132812 138.042969 272.332031 139.355469 C 270.546875 140.332031 201.632812 180.066406 197.082031 182.660156 C 195.621094 183.484375 194.082031 184.113281 192.457031 184.539062 C 190.835938 184.96875 189.1875 185.179688 187.507812 185.179688 C 185.832031 185.179688 184.183594 184.96875 182.5625 184.539062 C 180.9375 184.113281 179.398438 183.484375 177.9375 182.660156 C 173.472656 180.109375 104.386719 140.757812 102.6875 139.695312 C 102.863281 138.367188 103.160156 137.066406 103.574219 135.789062 C 103.984375 134.515625 104.507812 133.285156 105.144531 132.105469 C 105.777344 130.921875 106.511719 129.808594 107.347656 128.757812 C 108.179688 127.710938 109.101562 126.746094 110.113281 125.863281 C 111.121094 124.980469 112.199219 124.195312 113.351562 123.503906 C 114.5 122.816406 115.703125 122.238281 116.957031 121.765625 C 118.210938 121.292969 119.5 120.9375 120.816406 120.699219 C 122.136719 120.460938 123.464844 120.339844 124.808594 120.339844 Z M 272.585938 232.304688 C 272.585938 233.035156 272.550781 233.765625 272.476562 234.496094 C 272.40625 235.222656 272.296875 235.949219 272.152344 236.667969 C 272.007812 237.386719 271.832031 238.09375 271.617188 238.796875 C 271.40625 239.496094 271.15625 240.183594 270.878906 240.863281 C 270.597656 241.539062 270.28125 242.199219 269.9375 242.84375 C 269.59375 243.492188 269.214844 244.117188 268.808594 244.726562 C 268.402344 245.335938 267.964844 245.925781 267.5 246.492188 C 267.035156 247.058594 266.542969 247.597656 266.027344 248.117188 C 265.507812 248.636719 264.964844 249.125 264.398438 249.589844 C 263.832031 250.054688 263.246094 250.492188 262.636719 250.898438 C 262.027344 251.304688 261.398438 251.683594 260.753906 252.027344 C 260.109375 252.375 259.445312 252.6875 258.769531 252.96875 C 258.09375 253.25 257.40625 253.496094 256.703125 253.710938 C 256.003906 253.921875 255.292969 254.101562 254.574219 254.246094 C 253.855469 254.386719 253.132812 254.496094 252.40625 254.570312 C 251.675781 254.640625 250.945312 254.679688 250.210938 254.679688 L 124.808594 254.679688 C 124.074219 254.679688 123.34375 254.640625 122.613281 254.570312 C 121.886719 254.496094 121.160156 254.386719 120.445312 254.246094 C 119.726562 254.101562 119.015625 253.921875 118.316406 253.710938 C 117.613281 253.496094 116.925781 253.25 116.25 252.96875 C 115.570312 252.6875 114.910156 252.375 114.265625 252.027344 C 113.617188 251.683594 112.992188 251.304688 112.382812 250.898438 C 111.773438 250.492188 111.1875 250.054688 110.621094 249.589844 C 110.054688 249.125 109.511719 248.636719 108.992188 248.117188 C 108.476562 247.597656 107.984375 247.058594 107.519531 246.492188 C 107.054688 245.925781 106.617188 245.335938 106.210938 244.726562 C 105.804688 244.117188 105.425781 243.492188 105.082031 242.84375 C 104.734375 242.199219 104.421875 241.539062 104.140625 240.863281 C 103.859375 240.183594 103.613281 239.496094 103.402344 238.796875 C 103.1875 238.09375 103.007812 237.386719 102.867188 236.667969 C 102.722656 235.949219 102.613281 235.222656 102.542969 234.496094 C 102.46875 233.765625 102.433594 233.035156 102.429688 232.304688 L 102.429688 149.863281 L 173.558594 190.445312 C 174.617188 191.046875 175.710938 191.582031 176.839844 192.042969 C 177.96875 192.503906 179.125 192.890625 180.304688 193.203125 C 181.480469 193.515625 182.675781 193.75 183.886719 193.910156 C 185.097656 194.066406 186.3125 194.144531 187.53125 194.144531 C 188.75 194.144531 189.964844 194.066406 191.175781 193.910156 C 192.386719 193.75 193.578125 193.515625 194.757812 193.203125 C 195.9375 192.890625 197.09375 192.503906 198.222656 192.042969 C 199.351562 191.582031 200.445312 191.046875 201.503906 190.445312 L 272.585938 149.523438 Z M 272.585938 232.304688 " fill-opacity="1" fill-rule="nonzero"/></g></svg>