<svg width="200" height="200" viewBox="0 0 200 200" fill="none" xmlns="http://www.w3.org/2000/svg">
<g id="Email">
<rect id="Rectangle 13" x="25.7142" y="40" width="145.714" height="120" fill="white"/>
<g id="Group">
<path id="Vector" d="M100 0C98.3643 0 96.7286 0.0401745 95.0958 0.120523C93.4602 0.200872 91.8274 0.321396 90.2003 0.482094C88.5704 0.642792 86.9462 0.843664 85.3277 1.08471C83.7092 1.32289 82.0965 1.60411 80.4924 1.92264C78.8883 2.24116 77.2899 2.59986 75.7031 2.99874C74.1162 3.39474 72.5379 3.83092 70.9739 4.30728C69.4071 4.78363 67.8518 5.29442 66.3108 5.84826C64.7727 6.39922 63.2461 6.98749 61.7338 7.61306C60.2215 8.23864 58.7265 8.90151 57.2458 9.6017C55.765 10.3019 54.3044 11.0365 52.861 11.8084C51.4176 12.5803 49.9943 13.3867 48.591 14.2275C47.1878 15.0712 45.8046 15.9464 44.4444 16.8532C43.0843 17.7629 41.747 18.707 40.4299 19.6798C39.1156 20.6554 37.8271 21.6626 36.5616 22.7014C35.2961 23.7374 34.0593 24.8077 32.8455 25.9068C31.6317 27.0059 30.4465 28.1336 29.2901 29.2901C28.1336 30.4465 27.0059 31.6317 25.9068 32.8455C24.8077 34.0593 23.7374 35.2961 22.7014 36.5616C21.6626 37.8271 20.6554 39.1156 19.6798 40.4299C18.707 41.747 17.7629 43.0843 16.8532 44.4444C15.9464 45.8046 15.0712 47.1878 14.2275 48.591C13.3867 49.9943 12.5803 51.4176 11.8084 52.861C11.0365 54.3044 10.3019 55.765 9.6017 57.2458C8.90151 58.7265 8.23864 60.2215 7.61306 61.7338C6.98749 63.2461 6.39922 64.7727 5.84826 66.3108C5.29442 67.8518 4.78363 69.4071 4.30728 70.9739C3.83092 72.5379 3.39474 74.1162 2.99874 75.7031C2.59986 77.2899 2.24116 78.8883 1.92264 80.4924C1.60411 82.0965 1.32289 83.7092 1.08471 85.3277C0.843664 86.9462 0.642792 88.5704 0.482094 90.2003C0.321396 91.8274 0.200872 93.4602 0.120523 95.0958C0.0401745 96.7286 0 98.3643 0 100C0 101.639 0.0401745 103.274 0.120523 104.907C0.200872 106.543 0.321396 108.176 0.482094 109.803C0.642792 111.433 0.843664 113.057 1.08471 114.675C1.32289 116.294 1.60411 117.906 1.92264 119.51C2.24116 121.115 2.59986 122.713 2.99874 124.3C3.39474 125.887 3.83092 127.465 4.30728 129.029C4.78363 130.596 5.29442 132.148 5.84826 133.689C6.39922 135.23 6.98749 136.757 7.61306 138.269C8.23864 139.781 8.90151 141.276 9.6017 142.757C10.3019 144.235 11.0365 145.698 11.8084 147.142C12.5803 148.585 13.3867 150.009 14.2275 151.412C15.0712 152.815 15.9464 154.198 16.8532 155.558C17.7629 156.919 18.707 158.256 19.6798 159.57C20.6554 160.884 21.6626 162.176 22.7014 163.441C23.7374 164.707 24.8077 165.944 25.9068 167.157C27.0059 168.368 28.1336 169.553 29.2901 170.713C30.4465 171.869 31.6317 172.997 32.8455 174.096C34.0593 175.195 35.2961 176.263 36.5616 177.301C37.8271 178.34 39.1156 179.347 40.4299 180.323C41.747 181.296 43.0843 182.24 44.4444 183.147C45.8046 184.056 47.1878 184.932 48.591 185.775C49.9943 186.616 51.4176 187.423 52.861 188.194C54.3044 188.963 55.765 189.701 57.2458 190.401C58.7265 191.098 60.2215 191.764 61.7338 192.39C63.2461 193.015 64.7727 193.604 66.3108 194.155C67.8518 194.706 69.4071 195.219 70.9739 195.696C72.5379 196.169 74.1162 196.605 75.7031 197.004C77.2899 197.403 78.8883 197.762 80.4924 198.08C82.0965 198.399 83.7092 198.68 85.3277 198.918C86.9462 199.159 88.5704 199.36 90.2003 199.521C91.8274 199.681 93.4602 199.799 95.0958 199.879C96.7286 199.96 98.3643 200 100 200C101.639 200 103.274 199.96 104.907 199.879C106.543 199.799 108.176 199.681 109.803 199.521C111.433 199.36 113.057 199.159 114.675 198.918C116.294 198.68 117.906 198.399 119.51 198.08C121.115 197.762 122.713 197.403 124.3 197.004C125.887 196.605 127.465 196.169 129.029 195.696C130.596 195.219 132.148 194.706 133.689 194.155C135.23 193.604 136.757 193.015 138.269 192.39C139.781 191.764 141.276 191.098 142.757 190.401C144.235 189.701 145.698 188.963 147.142 188.194C148.585 187.423 150.009 186.616 151.412 185.775C152.815 184.932 154.198 184.056 155.558 183.147C156.919 182.24 158.256 181.296 159.57 180.323C160.884 179.347 162.176 178.34 163.441 177.301C164.707 176.263 165.944 175.195 167.157 174.096C168.368 172.997 169.553 171.869 170.713 170.713C171.869 169.553 172.997 168.368 174.096 167.157C175.195 165.944 176.263 164.707 177.301 163.441C178.34 162.176 179.347 160.884 180.323 159.57C181.296 158.256 182.24 156.919 183.147 155.558C184.056 154.198 184.932 152.815 185.775 151.412C186.616 150.009 187.423 148.585 188.194 147.142C188.963 145.698 189.701 144.235 190.401 142.757C191.098 141.276 191.764 139.781 192.39 138.269C193.015 136.757 193.604 135.23 194.155 133.689C194.706 132.148 195.219 130.596 195.696 129.029C196.169 127.465 196.605 125.887 197.004 124.3C197.403 122.713 197.762 121.115 198.08 119.51C198.399 117.906 198.68 116.294 198.918 114.675C199.159 113.057 199.36 111.433 199.521 109.803C199.681 108.176 199.799 106.543 199.879 104.907C199.96 103.274 200 101.639 200 100C200 98.3643 199.96 96.7286 199.879 95.093C199.799 93.4602 199.679 91.8274 199.518 90.1974C199.357 88.5704 199.156 86.9462 198.915 85.3277C198.674 83.7092 198.396 82.0965 198.074 80.4896C197.756 78.8854 197.397 77.2899 196.998 75.7031C196.602 74.1133 196.163 72.5379 195.69 70.9711C195.213 69.4043 194.7 67.8518 194.149 66.3108C193.598 64.7699 193.01 63.2432 192.381 61.7309C191.756 60.2187 191.093 58.7236 190.393 57.2429C189.692 55.765 188.958 54.3015 188.186 52.861C187.414 51.4176 186.608 49.9914 185.767 48.5882C184.923 47.1849 184.048 45.8018 183.138 44.4416C182.231 43.0814 181.287 41.7441 180.315 40.4299C179.339 39.1156 178.332 37.8243 177.293 36.5588C176.254 35.2961 175.187 34.0565 174.087 32.8426C172.988 31.6317 171.861 30.4465 170.704 29.2901C169.545 28.1307 168.36 27.003 167.149 25.9039C165.935 24.8049 164.698 23.7374 163.433 22.6986C162.167 21.6598 160.879 20.6554 159.562 19.6798C158.247 18.7041 156.91 17.7629 155.55 16.8532C154.19 15.9435 152.806 15.0683 151.403 14.2275C150 13.3867 148.577 12.5803 147.133 11.8084C145.69 11.0365 144.229 10.3019 142.751 9.6017C141.271 8.90151 139.776 8.23864 138.263 7.61306C136.751 6.98749 135.224 6.39635 133.686 5.84539C132.145 5.29442 130.59 4.78076 129.026 4.30728C127.459 3.83092 125.884 3.39474 124.294 2.99874C122.707 2.59986 121.112 2.24116 119.508 1.92264C117.903 1.60411 116.291 1.32289 114.672 1.08471C113.054 0.843664 111.43 0.642792 109.803 0.482094C108.173 0.321396 106.543 0.200872 104.907 0.120523C103.274 0.0401745 101.639 0 100 0ZM53.94 50.6571H146.063C147.039 50.6571 148.006 50.7432 148.967 50.9154C149.925 51.0876 150.864 51.343 151.779 51.6816C152.692 52.0202 153.57 52.4363 154.411 52.9327C155.251 53.4263 156.041 53.9916 156.781 54.6287C157.518 55.2629 158.196 55.9602 158.813 56.7149C159.43 57.4725 159.972 58.2759 160.445 59.1311C160.916 59.9834 161.309 60.8729 161.625 61.7941C161.938 62.7181 162.167 63.6622 162.313 64.6264C161.002 65.3438 110.376 94.5334 107.033 96.4388C105.96 97.0443 104.83 97.5063 103.636 97.8191C102.445 98.1348 101.234 98.2897 100 98.2897C98.7689 98.2897 97.558 98.1348 96.3671 97.8191C95.1733 97.5063 94.0427 97.0443 92.9695 96.4388C89.6895 94.565 38.9377 65.6566 37.6894 64.876C37.8185 63.9004 38.0366 62.9448 38.3408 62.0064C38.6421 61.0709 39.0266 60.167 39.4944 59.3004C39.9593 58.4309 40.4987 57.6131 41.1128 56.8411C41.7241 56.0721 42.4013 55.3633 43.1445 54.7148C43.8849 54.0662 44.6769 53.4894 45.5234 52.9815C46.3671 52.4765 47.2509 52.0518 48.1721 51.7045C49.0932 51.3573 50.0402 51.0962 51.0072 50.9211C51.9772 50.7461 52.9528 50.6571 53.94 50.6571ZM162.5 132.909C162.5 133.445 162.474 133.982 162.42 134.518C162.368 135.052 162.288 135.586 162.181 136.114C162.075 136.642 161.946 137.161 161.788 137.678C161.633 138.192 161.45 138.697 161.246 139.196C161.039 139.692 160.807 140.177 160.554 140.651C160.302 141.127 160.024 141.586 159.725 142.034C159.427 142.482 159.105 142.915 158.764 143.331C158.422 143.747 158.061 144.143 157.682 144.525C157.3 144.906 156.901 145.265 156.485 145.607C156.069 145.948 155.639 146.27 155.191 146.568C154.743 146.866 154.281 147.145 153.808 147.397C153.334 147.653 152.847 147.882 152.35 148.089C151.854 148.295 151.349 148.476 150.832 148.634C150.319 148.789 149.796 148.921 149.268 149.027C148.74 149.131 148.209 149.211 147.676 149.265C147.139 149.317 146.602 149.346 146.063 149.346H53.94C53.4005 149.346 52.8639 149.317 52.3272 149.265C51.7935 149.211 51.2598 149.131 50.7346 149.027C50.2066 148.921 49.6843 148.789 49.1707 148.634C48.6542 148.476 48.1491 148.295 47.6527 148.089C47.1534 147.882 46.6684 147.653 46.1949 147.397C45.7185 147.145 45.2594 146.866 44.8118 146.568C44.3641 146.27 43.9337 145.948 43.5176 145.607C43.1015 145.265 42.7026 144.906 42.3209 144.525C41.9421 144.143 41.5806 143.747 41.2391 143.331C40.8976 142.915 40.5762 142.482 40.2778 142.034C39.9793 141.586 39.701 141.127 39.4485 140.651C39.1931 140.177 38.9635 139.692 38.7569 139.196C38.5503 138.697 38.3695 138.192 38.2145 137.678C38.0567 137.161 37.9247 136.642 37.8214 136.114C37.7152 135.586 37.6349 135.052 37.5832 134.518C37.5287 133.982 37.5029 133.445 37.5 132.909V72.3456L89.7526 102.158C90.5303 102.6 91.3338 102.993 92.1631 103.332C92.9924 103.67 93.8418 103.954 94.7084 104.184C95.5722 104.413 96.4503 104.586 97.3399 104.703C98.2295 104.818 99.1219 104.875 100.017 104.875C100.913 104.875 101.805 104.818 102.695 104.703C103.584 104.586 104.459 104.413 105.326 104.184C106.193 103.954 107.042 103.67 107.871 103.332C108.701 102.993 109.504 102.6 110.282 102.158L162.5 72.096V132.909Z" fill="#7289DA"/>
</g>
</g>
</svg>
