<svg width="200" height="200" viewBox="0 0 200 200" fill="none" xmlns="http://www.w3.org/2000/svg">
<g id="Linkedin" clip-path="url(#clip0_24_21)">
<g id="Group">
<path id="Vector" d="M55.4375 42.7563H144.627C147.069 42.7563 149.408 43.7251 151.135 45.448C152.862 47.173 153.831 49.5126 153.831 51.9501V149.156C153.831 151.596 152.862 153.933 151.135 155.658C149.408 157.383 147.069 158.352 144.627 158.352H55.4375C52.9958 158.352 50.6541 157.383 48.927 155.658C47.202 153.933 46.2312 151.596 46.2312 149.156V51.9501C46.2312 49.5126 47.202 47.173 48.927 45.448C50.6541 43.7251 52.9958 42.7563 55.4375 42.7563Z" fill="white"/>
</g>
<path id="Vector_2" d="M118 85.6021C109.452 85.6021 105.625 90.3021 103.49 93.6021V86.7437H87.3833C87.5937 91.2833 87.3833 135.2 87.3833 135.2H103.49V108.133C103.49 106.683 103.59 105.235 104.017 104.206C105.183 101.308 107.831 98.3104 112.281 98.3104C118.108 98.3104 120.44 102.756 120.44 109.267V135.196H136.548V107.404C136.548 92.5271 128.6 85.6021 118 85.6021ZM103.485 93.7708H103.381C103.417 93.7146 103.456 93.6625 103.485 93.6062V93.7708Z" fill="#7289DA"/>
<path id="Vector_3" d="M62.3625 86.7437H78.4667V135.2H62.3625V86.7437Z" fill="#7289DA"/>
<path id="Vector_4" d="M99.7978 -0.104248C44.7124 -0.104248 -0.104248 44.7124 -0.104248 99.7978C-0.104248 154.885 44.7124 199.702 99.7978 199.702C154.885 199.702 199.702 154.885 199.702 99.7978C199.702 44.7124 154.885 -0.104248 99.7978 -0.104248ZM152.777 144.985C152.777 149.227 149.252 152.673 144.894 152.673H54.0249C49.677 152.673 46.1478 149.231 46.1478 144.985V53.0583C46.1478 48.8124 49.677 45.3728 54.0249 45.3728H144.894C149.248 45.3728 152.777 48.8166 152.777 53.0583V144.985Z" fill="#7289DA"/>
<path id="Vector_5" d="M70.523 63.3833C65.0188 63.3833 61.4126 66.9979 61.4126 71.7541C61.4126 76.4021 64.9105 80.125 70.3105 80.125H70.4147C76.0313 80.125 79.5293 76.4021 79.5293 71.7541C79.4209 67.0021 76.0355 63.3833 70.523 63.3833Z" fill="#7289DA"/>
</g>
<defs>
<clipPath id="clip0_24_21">
<rect width="200" height="200" fill="white"/>
</clipPath>
</defs>
</svg>
