<svg xmlns="http://www.w3.org/2000/svg" xmlns:xlink="http://www.w3.org/1999/xlink" width="500" zoomAndPan="magnify" viewBox="0 0 375 374.999991" height="500" preserveAspectRatio="xMidYMid meet" version="1.0"><defs><clipPath id="6e5f8c814d"><path d="M 86.683594 80.164062 L 288.433594 80.164062 L 288.433594 296.914062 L 86.683594 296.914062 Z M 86.683594 80.164062 " clip-rule="nonzero"/></clipPath></defs><g clip-path="url(#6e5f8c814d)"><path fill="#ffffff" d="M 103.945312 80.167969 L 271.175781 80.167969 C 275.753906 80.167969 280.140625 81.984375 283.378906 85.214844 C 286.617188 88.449219 288.433594 92.835938 288.433594 97.40625 L 288.433594 279.667969 C 288.433594 284.242188 286.617188 288.625 283.378906 291.859375 C 280.140625 295.09375 275.753906 296.910156 271.175781 296.910156 L 103.945312 296.910156 C 99.367188 296.910156 94.976562 295.09375 91.738281 291.859375 C 88.503906 288.625 86.683594 284.242188 86.683594 279.667969 L 86.683594 97.40625 C 86.683594 92.835938 88.503906 88.449219 91.738281 85.214844 C 94.976562 81.984375 99.367188 80.167969 103.945312 80.167969 " fill-opacity="1" fill-rule="nonzero"/></g><path fill="#7289da" d="M 221.25 160.503906 C 205.222656 160.503906 198.046875 169.316406 194.042969 175.503906 L 194.042969 162.644531 L 163.84375 162.644531 C 164.238281 171.15625 163.84375 253.5 163.84375 253.5 L 194.042969 253.5 L 194.042969 202.75 C 194.042969 200.03125 194.230469 197.316406 195.03125 195.386719 C 197.21875 189.953125 202.183594 184.332031 210.527344 184.332031 C 221.453125 184.332031 225.824219 192.667969 225.824219 204.875 L 225.824219 253.492188 L 256.027344 253.492188 L 256.027344 201.382812 C 256.027344 173.488281 241.125 160.503906 221.25 160.503906 Z M 194.035156 175.820312 L 193.839844 175.820312 C 193.90625 175.714844 193.980469 175.617188 194.035156 175.511719 Z M 194.035156 175.820312 " fill-opacity="1" fill-rule="nonzero"/><path fill="#7289da" d="M 116.929688 162.644531 L 147.125 162.644531 L 147.125 253.5 L 116.929688 253.5 Z M 116.929688 162.644531 " fill-opacity="1" fill-rule="nonzero"/><path fill="#7289da" d="M 187.121094 -0.195312 C 83.835938 -0.195312 -0.195312 83.835938 -0.195312 187.121094 C -0.195312 290.410156 83.835938 374.441406 187.121094 374.441406 C 290.410156 374.441406 374.441406 290.410156 374.441406 187.121094 C 374.441406 83.835938 290.410156 -0.195312 187.121094 -0.195312 Z M 286.457031 271.847656 C 286.457031 279.800781 279.847656 286.261719 271.675781 286.261719 L 101.296875 286.261719 C 93.144531 286.261719 86.527344 279.808594 86.527344 271.847656 L 86.527344 99.484375 C 86.527344 91.523438 93.144531 85.074219 101.296875 85.074219 L 271.675781 85.074219 C 279.839844 85.074219 286.457031 91.53125 286.457031 99.484375 Z M 286.457031 271.847656 " fill-opacity="1" fill-rule="nonzero"/><path fill="#7289da" d="M 132.230469 118.84375 C 121.910156 118.84375 115.148438 125.621094 115.148438 134.539062 C 115.148438 143.253906 121.707031 150.234375 131.832031 150.234375 L 132.027344 150.234375 C 142.558594 150.234375 149.117188 143.253906 149.117188 134.539062 C 148.914062 125.628906 142.566406 118.84375 132.230469 118.84375 Z M 132.230469 118.84375 " fill-opacity="1" fill-rule="nonzero"/></svg>