<svg width="617" height="361" viewBox="0 0 617 361" fill="none" xmlns="http://www.w3.org/2000/svg">
<g clip-path="url(#clip0_307_38)">
<path d="M37.2317 124.662H-11L37.2317 96.8872V124.662Z" fill="#AFBEF4"/>
<path d="M553.958 124.662H-11V264.47H553.958V264.391L617 194.526L553.958 124.662Z" fill="#7289DA"/>
</g>
<path d="M137.063 168.92C145.33 168.92 151.677 170.387 156.103 173.32C160.53 176.2 162.743 180.947 162.743 187.56C162.743 194.227 160.503 199.053 156.023 202.04C151.543 204.973 145.143 206.44 136.823 206.44H132.903V225H120.423V170.36C123.143 169.827 126.023 169.453 129.063 169.24C132.103 169.027 134.77 168.92 137.063 168.92ZM137.863 179.56C136.957 179.56 136.05 179.587 135.143 179.64C134.29 179.693 133.543 179.747 132.903 179.8V195.8H136.823C141.143 195.8 144.397 195.213 146.583 194.04C148.77 192.867 149.863 190.68 149.863 187.48C149.863 185.933 149.57 184.653 148.983 183.64C148.45 182.627 147.65 181.827 146.583 181.24C145.57 180.6 144.317 180.173 142.823 179.96C141.33 179.693 139.677 179.56 137.863 179.56ZM209.296 203.88C209.296 207.187 208.816 210.227 207.856 213C206.896 215.72 205.509 218.067 203.696 220.04C201.883 221.96 199.696 223.453 197.136 224.52C194.629 225.587 191.803 226.12 188.656 226.12C185.563 226.12 182.736 225.587 180.176 224.52C177.669 223.453 175.509 221.96 173.696 220.04C171.883 218.067 170.469 215.72 169.456 213C168.443 210.227 167.936 207.187 167.936 203.88C167.936 200.573 168.443 197.56 169.456 194.84C170.523 192.12 171.963 189.8 173.776 187.88C175.643 185.96 177.829 184.467 180.336 183.4C182.896 182.333 185.669 181.8 188.656 181.8C191.696 181.8 194.469 182.333 196.976 183.4C199.536 184.467 201.723 185.96 203.536 187.88C205.349 189.8 206.763 192.12 207.776 194.84C208.789 197.56 209.296 200.573 209.296 203.88ZM197.136 203.88C197.136 200.2 196.389 197.32 194.896 195.24C193.456 193.107 191.376 192.04 188.656 192.04C185.936 192.04 183.829 193.107 182.336 195.24C180.843 197.32 180.096 200.2 180.096 203.88C180.096 207.56 180.843 210.493 182.336 212.68C183.829 214.813 185.936 215.88 188.656 215.88C191.376 215.88 193.456 214.813 194.896 212.68C196.389 210.493 197.136 207.56 197.136 203.88ZM243.89 193.48C242.823 193.213 241.57 192.947 240.13 192.68C238.69 192.36 237.143 192.2 235.49 192.2C234.743 192.2 233.836 192.28 232.77 192.44C231.756 192.547 230.983 192.68 230.45 192.84V225H218.53V185.16C220.663 184.413 223.17 183.72 226.05 183.08C228.983 182.387 232.236 182.04 235.81 182.04C236.45 182.04 237.223 182.093 238.13 182.2C239.036 182.253 239.943 182.36 240.85 182.52C241.756 182.627 242.663 182.787 243.57 183C244.476 183.16 245.25 183.373 245.89 183.64L243.89 193.48ZM251.88 172.44L263.8 170.52V182.92H278.12V192.84H263.8V207.64C263.8 210.147 264.226 212.147 265.08 213.64C265.986 215.133 267.773 215.88 270.44 215.88C271.72 215.88 273.026 215.773 274.36 215.56C275.746 215.293 277 214.947 278.12 214.52L279.8 223.8C278.36 224.387 276.76 224.893 275 225.32C273.24 225.747 271.08 225.96 268.52 225.96C265.266 225.96 262.573 225.533 260.44 224.68C258.306 223.773 256.6 222.547 255.32 221C254.04 219.4 253.133 217.48 252.6 215.24C252.12 213 251.88 210.52 251.88 207.8V172.44ZM306.067 162.92C308.307 162.92 310.36 163.16 312.227 163.64C314.093 164.067 315.533 164.493 316.547 164.92L314.227 174.44C313.16 173.96 311.987 173.613 310.707 173.4C309.48 173.133 308.333 173 307.267 173C305.827 173 304.6 173.213 303.587 173.64C302.627 174.013 301.853 174.547 301.267 175.24C300.733 175.933 300.333 176.76 300.067 177.72C299.853 178.68 299.747 179.72 299.747 180.84V182.92H314.467V192.84H299.747V225H287.827V180.68C287.827 175.24 289.347 170.92 292.387 167.72C295.48 164.52 300.04 162.92 306.067 162.92ZM360.312 203.88C360.312 207.187 359.832 210.227 358.872 213C357.912 215.72 356.525 218.067 354.712 220.04C352.898 221.96 350.712 223.453 348.152 224.52C345.645 225.587 342.818 226.12 339.672 226.12C336.578 226.12 333.752 225.587 331.192 224.52C328.685 223.453 326.525 221.96 324.712 220.04C322.898 218.067 321.485 215.72 320.472 213C319.458 210.227 318.952 207.187 318.952 203.88C318.952 200.573 319.458 197.56 320.472 194.84C321.538 192.12 322.978 189.8 324.792 187.88C326.658 185.96 328.845 184.467 331.352 183.4C333.912 182.333 336.685 181.8 339.672 181.8C342.712 181.8 345.485 182.333 347.992 183.4C350.552 184.467 352.738 185.96 354.552 187.88C356.365 189.8 357.778 192.12 358.792 194.84C359.805 197.56 360.312 200.573 360.312 203.88ZM348.152 203.88C348.152 200.2 347.405 197.32 345.912 195.24C344.472 193.107 342.392 192.04 339.672 192.04C336.952 192.04 334.845 193.107 333.352 195.24C331.858 197.32 331.112 200.2 331.112 203.88C331.112 207.56 331.858 210.493 333.352 212.68C334.845 214.813 336.952 215.88 339.672 215.88C342.392 215.88 344.472 214.813 345.912 212.68C347.405 210.493 348.152 207.56 348.152 203.88ZM349.512 167.8L336.312 178.92L330.872 174.04L342.232 161.08L349.512 167.8ZM386.345 225.8C382.879 225.747 380.052 225.373 377.865 224.68C375.732 223.987 374.025 223.027 372.745 221.8C371.519 220.52 370.665 219 370.185 217.24C369.759 215.427 369.545 213.4 369.545 211.16V164.84L381.465 162.92V208.76C381.465 209.827 381.545 210.787 381.705 211.64C381.865 212.493 382.159 213.213 382.585 213.8C383.065 214.387 383.732 214.867 384.585 215.24C385.439 215.613 386.585 215.853 388.025 215.96L386.345 225.8ZM406.778 225H394.858V182.92H406.778V225ZM407.898 170.76C407.898 172.947 407.178 174.68 405.738 175.96C404.351 177.187 402.698 177.8 400.778 177.8C398.858 177.8 397.178 177.187 395.738 175.96C394.351 174.68 393.658 172.947 393.658 170.76C393.658 168.573 394.351 166.867 395.738 165.64C397.178 164.36 398.858 163.72 400.778 163.72C402.698 163.72 404.351 164.36 405.738 165.64C407.178 166.867 407.898 168.573 407.898 170.76ZM457.343 203.88C457.343 207.187 456.863 210.227 455.903 213C454.943 215.72 453.556 218.067 451.743 220.04C449.929 221.96 447.743 223.453 445.183 224.52C442.676 225.587 439.849 226.12 436.703 226.12C433.609 226.12 430.783 225.587 428.223 224.52C425.716 223.453 423.556 221.96 421.743 220.04C419.929 218.067 418.516 215.72 417.503 213C416.489 210.227 415.983 207.187 415.983 203.88C415.983 200.573 416.489 197.56 417.503 194.84C418.569 192.12 420.009 189.8 421.823 187.88C423.689 185.96 425.876 184.467 428.383 183.4C430.943 182.333 433.716 181.8 436.703 181.8C439.743 181.8 442.516 182.333 445.023 183.4C447.583 184.467 449.769 185.96 451.583 187.88C453.396 189.8 454.809 192.12 455.823 194.84C456.836 197.56 457.343 200.573 457.343 203.88ZM445.183 203.88C445.183 200.2 444.436 197.32 442.943 195.24C441.503 193.107 439.423 192.04 436.703 192.04C433.983 192.04 431.876 193.107 430.383 195.24C428.889 197.32 428.143 200.2 428.143 203.88C428.143 207.56 428.889 210.493 430.383 212.68C431.876 214.813 433.983 215.88 436.703 215.88C439.423 215.88 441.503 214.813 442.943 212.68C444.436 210.493 445.183 207.56 445.183 203.88Z" fill="white"/>
<defs>
<clipPath id="clip0_307_38">
<rect width="628" height="361" fill="white" transform="translate(-11)"/>
</clipPath>
</defs>
</svg>
