<svg width="628" height="361" viewBox="0 0 628 361" fill="none" xmlns="http://www.w3.org/2000/svg">
<g clip-path="url(#clip0_26_46)">
<path d="M48.2317 124.662H0L48.2317 96.8871V124.662Z" fill="#AFBEF4"/>
<path d="M564.958 124.662H0V264.47H564.958V264.391L628 194.526L564.958 124.662Z" fill="#7289DA"/>
</g>
<path d="M107.958 213.48C109.718 213.48 111.158 213.347 112.278 213.08C113.451 212.76 114.384 212.36 115.078 211.88C115.771 211.347 116.251 210.733 116.518 210.04C116.784 209.347 116.918 208.573 116.918 207.72C116.918 205.907 116.064 204.413 114.358 203.24C112.651 202.013 109.718 200.707 105.558 199.32C103.744 198.68 101.931 197.96 100.118 197.16C98.3042 196.307 96.6775 195.267 95.2375 194.04C93.7975 192.76 92.6242 191.24 91.7175 189.48C90.8108 187.667 90.3575 185.48 90.3575 182.92C90.3575 180.36 90.8375 178.067 91.7975 176.04C92.7575 173.96 94.1175 172.2 95.8775 170.76C97.6375 169.32 99.7708 168.227 102.278 167.48C104.784 166.68 107.611 166.28 110.758 166.28C114.491 166.28 117.718 166.68 120.438 167.48C123.158 168.28 125.398 169.16 127.158 170.12L123.558 179.96C122.011 179.16 120.278 178.467 118.358 177.88C116.491 177.24 114.224 176.92 111.558 176.92C108.571 176.92 106.411 177.347 105.078 178.2C103.798 179 103.158 180.253 103.158 181.96C103.158 182.973 103.398 183.827 103.878 184.52C104.358 185.213 105.024 185.853 105.878 186.44C106.784 186.973 107.798 187.48 108.918 187.96C110.091 188.387 111.371 188.84 112.758 189.32C115.638 190.387 118.144 191.453 120.278 192.52C122.411 193.533 124.171 194.733 125.558 196.12C126.998 197.507 128.064 199.133 128.758 201C129.451 202.867 129.798 205.133 129.798 207.8C129.798 212.973 127.984 217 124.358 219.88C120.731 222.707 115.264 224.12 107.958 224.12C105.504 224.12 103.291 223.96 101.318 223.64C99.3442 223.373 97.5842 223.027 96.0375 222.6C94.5442 222.173 93.2375 221.72 92.1175 221.24C91.0508 220.76 90.1442 220.307 89.3975 219.88L92.9175 209.96C94.5708 210.867 96.5975 211.693 98.9975 212.44C101.451 213.133 104.438 213.48 107.958 213.48ZM177.96 201.88C177.96 205.187 177.48 208.227 176.52 211C175.56 213.72 174.173 216.067 172.36 218.04C170.547 219.96 168.36 221.453 165.8 222.52C163.293 223.587 160.467 224.12 157.32 224.12C154.227 224.12 151.4 223.587 148.84 222.52C146.333 221.453 144.173 219.96 142.36 218.04C140.547 216.067 139.133 213.72 138.12 211C137.107 208.227 136.6 205.187 136.6 201.88C136.6 198.573 137.107 195.56 138.12 192.84C139.187 190.12 140.627 187.8 142.44 185.88C144.307 183.96 146.493 182.467 149 181.4C151.56 180.333 154.333 179.8 157.32 179.8C160.36 179.8 163.133 180.333 165.64 181.4C168.2 182.467 170.387 183.96 172.2 185.88C174.013 187.8 175.427 190.12 176.44 192.84C177.453 195.56 177.96 198.573 177.96 201.88ZM165.8 201.88C165.8 198.2 165.053 195.32 163.56 193.24C162.12 191.107 160.04 190.04 157.32 190.04C154.6 190.04 152.493 191.107 151 193.24C149.507 195.32 148.76 198.2 148.76 201.88C148.76 205.56 149.507 208.493 151 210.68C152.493 212.813 154.6 213.88 157.32 213.88C160.04 213.88 162.12 212.813 163.56 210.68C165.053 208.493 165.8 205.56 165.8 201.88ZM214.154 201.64C214.154 193.96 211.327 190.12 205.674 190.12C204.447 190.12 203.22 190.28 201.994 190.6C200.82 190.92 199.86 191.32 199.114 191.8V213.48C199.7 213.587 200.447 213.693 201.354 213.8C202.26 213.853 203.247 213.88 204.314 213.88C207.567 213.88 210.02 212.76 211.674 210.52C213.327 208.28 214.154 205.32 214.154 201.64ZM226.314 201.96C226.314 205.32 225.807 208.36 224.794 211.08C223.834 213.8 222.42 216.12 220.554 218.04C218.687 219.96 216.394 221.453 213.674 222.52C210.954 223.533 207.86 224.04 204.394 224.04C202.954 224.04 201.434 223.96 199.834 223.8C198.287 223.693 196.74 223.533 195.194 223.32C193.7 223.107 192.26 222.867 190.874 222.6C189.487 222.28 188.26 221.96 187.194 221.64V162.84L199.114 160.92V181.88C200.447 181.293 201.834 180.84 203.274 180.52C204.714 180.2 206.26 180.04 207.914 180.04C210.9 180.04 213.54 180.573 215.834 181.64C218.127 182.653 220.047 184.12 221.594 186.04C223.14 187.96 224.314 190.28 225.114 193C225.914 195.667 226.314 198.653 226.314 201.96ZM260.835 191.48C259.768 191.213 258.515 190.947 257.075 190.68C255.635 190.36 254.088 190.2 252.435 190.2C251.688 190.2 250.782 190.28 249.715 190.44C248.702 190.547 247.928 190.68 247.395 190.84V223H235.475V183.16C237.608 182.413 240.115 181.72 242.995 181.08C245.928 180.387 249.182 180.04 252.755 180.04C253.395 180.04 254.168 180.093 255.075 180.2C255.982 180.253 256.888 180.36 257.795 180.52C258.702 180.627 259.608 180.787 260.515 181C261.422 181.16 262.195 181.373 262.835 181.64L260.835 191.48ZM266.444 202.28C266.444 198.547 267.004 195.293 268.124 192.52C269.297 189.693 270.817 187.347 272.684 185.48C274.55 183.613 276.684 182.2 279.084 181.24C281.537 180.28 284.044 179.8 286.604 179.8C292.577 179.8 297.297 181.64 300.764 185.32C304.23 188.947 305.964 194.307 305.964 201.4C305.964 202.093 305.937 202.867 305.884 203.72C305.83 204.52 305.777 205.24 305.724 205.88H278.684C278.95 208.333 280.097 210.28 282.124 211.72C284.15 213.16 286.87 213.88 290.284 213.88C292.47 213.88 294.604 213.693 296.684 213.32C298.817 212.893 300.55 212.387 301.884 211.8L303.484 221.48C302.844 221.8 301.99 222.12 300.924 222.44C299.857 222.76 298.657 223.027 297.324 223.24C296.044 223.507 294.657 223.72 293.164 223.88C291.67 224.04 290.177 224.12 288.684 224.12C284.897 224.12 281.59 223.56 278.764 222.44C275.99 221.32 273.67 219.8 271.804 217.88C269.99 215.907 268.63 213.587 267.724 210.92C266.87 208.253 266.444 205.373 266.444 202.28ZM294.444 197.72C294.39 196.707 294.204 195.72 293.884 194.76C293.617 193.8 293.164 192.947 292.524 192.2C291.937 191.453 291.164 190.84 290.204 190.36C289.297 189.88 288.15 189.64 286.764 189.64C285.43 189.64 284.284 189.88 283.324 190.36C282.364 190.787 281.564 191.373 280.924 192.12C280.284 192.867 279.777 193.747 279.404 194.76C279.084 195.72 278.844 196.707 278.684 197.72H294.444Z" fill="white"/>
<defs>
<clipPath id="clip0_26_46">
<rect width="628" height="361" fill="white"/>
</clipPath>
</defs>
</svg>
