<svg width="398" height="86" viewBox="0 0 398 86" fill="none" xmlns="http://www.w3.org/2000/svg">
<path d="M389.494 24.2148C389.494 23.1142 389.238 22.1415 388.723 21.3066C388.217 20.4863 387.46 19.7985 386.444 19.2548C378.054 14.7838 369.66 10.3275 361.273 5.85266C359.012 4.64654 356.82 4.69044 354.577 5.91427C351.238 7.73347 334.521 16.5853 329.538 19.2517C327.488 20.3492 326.49 22.029 326.489 24.2125C326.486 33.2037 326.489 42.1926 326.486 51.1839C326.487 52.2591 326.731 53.2118 327.223 54.0343C327.729 54.88 328.498 55.5886 329.537 56.1439C334.518 58.8103 351.236 67.6598 354.575 69.4805C356.821 70.7067 359.013 70.7498 361.273 69.5422C369.661 65.0673 378.058 60.6102 386.448 56.1424C387.488 55.5863 388.255 54.8777 388.763 54.032C389.253 53.2118 389.498 52.2567 389.498 51.1792C389.498 51.1792 389.498 33.206 389.495 24.2148" fill="#AFBEF4"/>
<path d="M358.088 37.6101L327.223 54.0345C327.729 54.8794 328.498 55.5879 329.537 56.144C334.518 58.8104 351.236 67.6599 354.575 69.4807C356.821 70.706 359.013 70.7499 361.273 69.5423C369.661 65.0667 378.058 60.6104 386.448 56.1417C387.488 55.5856 388.255 54.8771 388.763 54.0321L358.088 37.6101" fill="#AFBEF4"/>
<path d="M348.946 42.4754C350.742 45.3736 354.118 47.3284 357.992 47.3284C361.889 47.3284 365.284 45.3482 367.072 42.4207L358.087 37.6101L348.946 42.4754Z" fill="#AFBEF4"/>
<path d="M389.494 24.2149C389.494 23.1143 389.237 22.1415 388.722 21.3066L358.087 37.6101L388.762 54.0321C389.252 53.2119 389.497 52.2568 389.497 51.1793C389.497 51.1793 389.497 33.2061 389.494 24.2149Z" fill="#AFBEF4"/>
<path d="M387.807 38.7839H385.412V40.9989H383.012V38.7839H380.616V36.5688H383.012V34.3545H385.412V36.5688H387.807V38.7839Z" fill="white"/>
<path d="M379.061 38.7839H376.664V40.9989H374.267V38.7839H371.872V36.5688H374.267V34.3545H376.664V36.5688H379.061V38.7839Z" fill="white"/>
<path d="M367.072 42.4206C365.284 45.3481 361.889 47.3283 357.992 47.3283C354.118 47.3283 350.742 45.3735 348.946 42.4753C348.073 41.0666 347.572 39.4377 347.572 37.697C347.572 32.3789 352.237 28.0673 357.992 28.0673C361.84 28.0673 365.197 29.9974 367.002 32.8664L376.109 28.0196C372.49 22.2439 365.732 18.3583 357.992 18.3583C346.435 18.3583 337.067 27.0168 337.067 37.697C337.067 41.2014 338.075 44.487 339.837 47.3214C343.448 53.1271 350.227 57.0373 357.992 57.0373C365.772 57.0373 372.559 53.1117 376.163 47.2898L367.072 42.4206Z" fill="white"/>
<path d="M110.281 73.3507L103 6.802H183L175.713 73.3414L142.949 80.7405L110.281 73.3507Z" fill="#DAC372"/>
<path d="M169.474 69.104L175.702 12.2438H143V75.0864L169.474 69.104Z" fill="#E4D49A"/>
<path d="M142.966 20.405H117.885L120.587 45.0868H143V36.9256H129.748L128.832 28.5685H143V20.405H142.966ZM143 58.0957L142.958 58.105L131.803 55.6513L131.095 49.1422H121.035L122.438 61.9575L142.955 66.5783L143 66.5667V58.0957Z" fill="#FAF6EB"/>
<path d="M142.966 45.0868H155.3L154.165 55.6699L142.995 58.1259V66.6178L163.527 61.98L166.278 36.921H143.001L142.966 45.0868ZM167.814 22.5954L168.053 20.405H142.961V28.5662H167.151L167.35 26.7313L167.814 22.5954Z" fill="white"/>
<path d="M80 6.802H0L7.0588 72.9579L39.9995 80.7405L72.9412 72.9579L80 6.802Z" fill="#7289DA"/>
<path d="M39.9995 12.6395V74.7089L66.353 68.4824L72.2352 12.6395H39.9995Z" fill="#AFBEF4"/>
<path d="M61.4112 22.3679H39.9995V30.1512H51.5295L50.8235 37.9346H39.9995V45.7171H50.3529L49.6469 54.4734L39.9995 57.1972V65.3695L58.5883 60.3101L60.2355 37.9346L61.4112 22.3679Z" fill="white"/>
<path d="M39.9996 22.3679V30.1512H19.0585L18.3525 22.3679H39.9996ZM29.1765 37.9346L29.6472 45.7171H39.9996V37.9346H29.1765ZM30.1178 49.6088H20.7058L21.4118 60.3101L39.9996 65.3695V57.1972L30.3532 54.4734L30.1178 49.6088Z" fill="#EBEEFA"/>
<path d="M262.705 4.13056L265.714 4.81105L268.147 5.70723L269.44 6.38209C269.889 6.61661 270.32 6.88495 270.728 7.18479L270.943 7.34231C271.389 7.66916 271.806 8.03237 272.192 8.4282L272.294 8.53336C272.594 8.8418 272.871 9.17232 273.122 9.52214C273.425 9.94475 273.69 10.3939 273.912 10.8642L274.11 11.2846L274.212 11.6019C274.362 12.0745 274.478 12.5577 274.557 13.0474L274.581 13.1951L274.605 13.4496C274.634 13.7433 274.635 14.0389 274.608 14.3327V32.6159L274.495 34.0449C274.457 34.5279 274.384 35.0075 274.276 35.4799L274.215 35.7506C274.077 36.354 273.881 36.9425 273.63 37.5078L273.616 37.5384C273.409 38.0033 273.162 38.4536 272.88 38.8777C272.592 39.3119 272.265 39.7239 271.906 40.1021C271.599 40.4264 271.264 40.7309 270.912 41.0062C270.542 41.2954 270.147 41.5595 269.737 41.789L269.179 42.1017L268.007 42.5818L266.914 42.9311L265.914 43.157L265.053 43.3034L264.351 43.3727H244.436L242.943 43.485C242.412 43.5248 241.886 43.6068 241.369 43.7303L241.127 43.7882C240.496 43.9388 239.881 44.1506 239.291 44.4204L239.208 44.4581C238.744 44.6706 238.297 44.9209 237.874 45.2064C237.387 45.5342 236.933 45.9072 236.516 46.3203L236.035 46.7983L235.616 47.3517C235.295 47.7747 235.009 48.2225 234.76 48.6909L234.472 49.2326L233.974 50.4883L233.637 51.6901L233.404 52.7891L233.271 53.711L233.209 54.4326V58.0084C233.209 61.8183 230.12 64.9069 226.31 64.9069C225.951 64.9069 225.591 64.8787 225.236 64.8227L225.07 64.7965L224.129 64.5577L223.077 64.1571L222.562 63.8866C222.124 63.6564 221.705 63.3922 221.308 63.0963C220.908 62.7973 220.531 62.4671 220.183 62.1086L219.508 61.4146L218.792 60.4495C218.488 60.0407 218.216 59.6093 217.978 59.159L217.268 57.8144L216.328 55.3159L215.638 52.3064L215.17 48.7088L215 44.4975L215.198 40.3247L215.73 36.7682L216.343 34.5062C216.473 34.0273 216.638 33.5588 216.837 33.1044L217.606 31.3525L218.351 30.1409C218.654 29.6485 218.999 29.1834 219.382 28.7506L219.581 28.526C219.949 28.1103 220.351 27.7259 220.783 27.377L220.954 27.2383C221.345 26.9224 221.759 26.6364 222.193 26.3828L222.934 25.9498L224.275 25.4028L225.475 25.0536L226.543 24.8789L227.335 24.8507H227.868L228.078 24.8789H253.854C254.637 24.8789 255.271 24.2443 255.271 23.4615C255.271 22.6786 254.637 22.044 253.854 22.044H245.216C240.011 22.044 235.787 17.8326 235.772 12.6276L235.739 11.9569C235.719 11.5576 235.739 11.1574 235.796 10.7618L235.801 10.7323C235.853 10.3737 235.939 10.0208 236.057 9.67815L236.077 9.61972C236.187 9.29928 236.328 8.99032 236.498 8.69724C236.7 8.34851 236.942 8.02443 237.219 7.73147L237.29 7.65693C237.519 7.41379 237.769 7.19 238.035 6.9878L238.174 6.88278C238.509 6.62844 238.864 6.40028 239.234 6.20032L239.938 5.82022L241.411 5.19109L243.104 4.68522L245.044 4.27179L247.165 3.9354L249.535 3.72227L252.103 3.58874L254.904 3.51941L259.135 3.69402L262.705 4.13056ZM242.241 10.546C241.891 10.7864 241.588 11.0894 241.347 11.4398C241.079 11.8304 240.894 12.2719 240.804 12.7369L240.8 12.7586C240.713 13.2064 240.713 13.6667 240.799 14.1145L240.805 14.1427C240.895 14.6055 241.075 15.0459 241.335 15.4387L241.348 15.4583C241.588 15.8191 241.893 16.1316 242.248 16.3795L242.268 16.3934C242.622 16.6401 243.02 16.8158 243.441 16.9105C243.922 17.019 244.421 17.019 244.902 16.9105C245.323 16.8158 245.721 16.6401 246.075 16.3934L246.094 16.3795C246.45 16.1316 246.755 15.8191 246.994 15.4583L247.007 15.4387C247.268 15.0459 247.448 14.6055 247.538 14.1427L247.543 14.1145C247.63 13.6667 247.63 13.2064 247.543 12.7586L247.539 12.7369C247.449 12.2719 247.264 11.8304 246.996 11.4398C246.755 11.0894 246.452 10.7864 246.102 10.546L246.075 10.5276C245.721 10.2847 245.324 10.1118 244.905 10.0182C244.422 9.9103 243.921 9.9103 243.438 10.0182C243.019 10.1118 242.622 10.2847 242.268 10.5276L242.241 10.546ZM285.353 24.4296L286.276 24.6453L287.343 25.0459L287.752 25.2608C288.261 25.5279 288.745 25.8382 289.2 26.1884L289.714 26.584L290.371 27.243C290.732 27.606 291.066 27.9963 291.368 28.4104L291.663 28.8149C291.943 29.2 292.196 29.6047 292.419 30.0258L293.152 31.409L294.08 33.9127L294.782 36.9351L295.25 40.4916L295.42 44.7029L295.213 48.9168L294.675 52.4733L294.078 54.6879C293.948 55.171 293.781 55.6435 293.58 56.1017L292.815 57.8478L292.046 59.097C291.759 59.5645 291.433 60.0075 291.073 60.4216L290.855 60.672C290.468 61.1165 290.043 61.5261 289.584 61.8957L289.45 62.0041C289.071 62.3092 288.671 62.5862 288.252 62.833L288.085 62.9316C287.678 63.1714 287.254 63.382 286.817 63.5619L286.146 63.8387L284.945 64.1468L283.878 64.3214L283.617 64.3425C283.263 64.3712 282.907 64.3727 282.552 64.3471H256.54C255.765 64.3471 255.136 64.9754 255.136 65.7504C255.136 66.5255 255.765 67.1538 256.54 67.1538H265.15C270.38 67.1538 274.626 71.3816 274.648 76.6113L274.68 77.2385C274.7 77.6394 274.681 78.0413 274.623 78.4384L274.619 78.4645C274.567 78.8237 274.481 79.1773 274.363 79.5206L274.341 79.5851C274.233 79.9009 274.094 80.2054 273.926 80.4943C273.713 80.8624 273.455 81.2027 273.158 81.5074L272.773 81.9036L272.471 82.1479C271.988 82.5389 271.47 82.884 270.923 83.1787L270.482 83.4161L269.009 84.0041L267.316 84.51L265.376 84.9517L263.243 85.2598L260.885 85.4986L258.304 85.6322L255.504 85.6733L251.273 85.5397L247.705 85.057L244.706 84.3765L242.954 83.7607C242.501 83.6014 242.06 83.4096 241.634 83.1868L241.049 82.8808C240.554 82.6218 240.082 82.3219 239.637 81.984L239.403 81.806C239.007 81.5051 238.633 81.1752 238.287 80.8189L238.126 80.6542C237.826 80.3457 237.549 80.0152 237.298 79.6654C236.995 79.2428 236.731 78.7936 236.508 78.3233L236.31 77.9029L236.236 77.679C236.059 77.1444 235.927 76.5959 235.842 76.0392L235.84 76.0206L235.815 75.7729C235.786 75.4814 235.781 75.1882 235.8 74.8959V56.6127L235.909 55.1985C235.949 54.6784 236.03 54.1622 236.151 53.6547L236.208 53.4146C236.344 52.8447 236.534 52.2821 236.77 51.7462C236.99 51.2496 237.253 50.7669 237.554 50.315L237.589 50.2632C237.846 49.8763 238.134 49.5107 238.449 49.1697C238.799 48.7913 239.182 48.4446 239.593 48.1338L240.073 47.7715L241.243 47.0859L242.403 46.6057L243.511 46.2565L244.514 46.0587L245.372 45.9252L246.504 45.8148H265.976L267.481 45.7024C268.012 45.6627 268.54 45.5805 269.058 45.4567L269.436 45.3664C269.976 45.2376 270.503 45.0621 271.012 44.8419L271.081 44.8121C271.635 44.5722 272.164 44.2759 272.658 43.9281C273.074 43.6354 273.463 43.3075 273.823 42.9478L274.38 42.3893L274.83 41.7936C275.128 41.3986 275.397 40.9821 275.634 40.5473L275.956 39.9549L276.453 38.7249L276.791 37.5334L277.029 36.4369L277.159 35.474L277.221 34.7524V31.2471C277.221 27.3982 280.341 24.2781 284.19 24.2781L284.66 24.3063L285.353 24.4296ZM264.278 72.858C263.945 73.0953 263.653 73.3926 263.424 73.7315L263.414 73.746C263.141 74.1488 262.955 74.6036 262.866 75.0818L262.861 75.1098C262.781 75.5422 262.781 75.9855 262.862 76.4178L262.865 76.439C262.954 76.92 263.146 77.3798 263.422 77.7831C263.652 78.1172 263.94 78.4109 264.27 78.6458L264.282 78.6544C264.675 78.9342 265.126 79.1273 265.6 79.2198C266.025 79.3028 266.465 79.3033 266.89 79.2203C267.367 79.1272 267.818 78.9317 268.212 78.6475L268.224 78.6391C268.543 78.4085 268.821 78.1245 269.044 77.7996L269.058 77.7788C269.334 77.3762 269.525 76.9211 269.618 76.4417C269.705 75.994 269.704 75.5305 269.618 75.0828C269.525 74.6059 269.337 74.1493 269.064 73.7471L269.044 73.7174C268.821 73.3878 268.539 73.0978 268.216 72.8649C267.822 72.5806 267.367 72.3825 266.89 72.2894C266.465 72.2064 266.025 72.2069 265.6 72.2899C265.126 72.3824 264.671 72.5782 264.278 72.858Z" fill="#AFBEF4"/>
</svg>
