<svg width="200" height="200" viewBox="0 0 200 200" fill="none" xmlns="http://www.w3.org/2000/svg">
<g id="Telegram" clip-path="url(#clip0_26_35)">
<rect id="Rectangle 14" x="34.2858" y="42.8569" width="131.429" height="114.286" fill="white"/>
<path id="Vector" fill-rule="evenodd" clip-rule="evenodd" d="M100 200C155.229 200 200 155.229 200 100C200 44.7708 155.229 0 100 0C44.7708 0 0 44.7708 0 100C0 155.229 44.7708 200 100 200ZM153.204 60.8229L134.994 141.471C134.894 141.91 134.74 142.331 134.538 142.721C134.41 142.963 134.267 143.194 134.106 143.413C133.49 144.25 132.625 144.896 131.61 145.246C129.906 145.833 128.019 145.494 126.623 144.352L102.825 124.881L92.8417 142.852C91.8188 144.692 89.7896 145.735 87.6979 145.494C85.6083 145.254 83.8667 143.779 83.2896 141.756L73.7542 108.383L50.85 103.802C48.5958 103.352 46.9042 101.475 46.6896 99.1875C46.6771 99.0438 46.6688 98.9021 46.6667 98.7604C46.6646 98.5958 46.6708 98.4333 46.6833 98.2729C46.8417 96.3417 48.0729 94.625 49.9146 93.8771L146.142 54.8667C146.21 54.8375 146.279 54.8104 146.35 54.7854C147.133 54.5 147.948 54.4146 148.731 54.5063C149.304 54.5729 149.871 54.7354 150.41 55C150.467 55.025 150.521 55.0542 150.575 55.0833C151.29 55.4625 151.919 56.0104 152.4 56.7021C152.648 57.0583 152.852 57.4458 153.004 57.8542C153.188 58.3417 153.292 58.8458 153.323 59.3479C153.354 59.8333 153.317 60.3271 153.206 60.8208L153.204 60.8229ZM123.888 81.0875L97.275 113.617C97.0521 113.888 96.8604 114.175 96.7021 114.473L89.8438 126.819L83.9604 106.225L123.888 81.0875Z" fill="#7289DA"/>
</g>
<defs>
<clipPath id="clip0_26_35">
<rect width="200" height="200" fill="white"/>
</clipPath>
</defs>
</svg>
