<svg xmlns="http://www.w3.org/2000/svg" xmlns:xlink="http://www.w3.org/1999/xlink" width="500" zoomAndPan="magnify" viewBox="0 0 375 374.999991" height="500" preserveAspectRatio="xMidYMid meet" version="1.0"><defs><clipPath id="59cd96a6ea"><path d="M 92.121094 117.121094 L 287.121094 117.121094 L 287.121094 266.371094 L 92.121094 266.371094 Z M 92.121094 117.121094 " clip-rule="nonzero"/></clipPath><clipPath id="55e6084d0e"><path d="M 55.339844 55.339844 L 319.339844 55.339844 L 319.339844 319.339844 L 55.339844 319.339844 Z M 55.339844 55.339844 " clip-rule="nonzero"/></clipPath></defs><g clip-path="url(#59cd96a6ea)"><path fill="#ffffff" d="M 109.363281 117.121094 L 269.875 117.121094 C 274.449219 117.121094 278.832031 118.933594 282.066406 122.164062 C 285.300781 125.394531 287.117188 129.777344 287.117188 134.347656 L 287.117188 249.144531 C 287.117188 253.710938 285.300781 258.09375 282.066406 261.324219 C 278.832031 264.554688 274.449219 266.371094 269.875 266.371094 L 109.363281 266.371094 C 104.789062 266.371094 100.40625 264.554688 97.171875 261.324219 C 93.9375 258.09375 92.121094 253.710938 92.121094 249.144531 L 92.121094 134.347656 C 92.121094 129.777344 93.9375 125.394531 97.171875 122.164062 C 100.40625 118.933594 104.789062 117.121094 109.363281 117.121094 " fill-opacity="1" fill-rule="nonzero"/></g><g clip-path="url(#55e6084d0e)"><path fill="#7289da" d="M 187.339844 55.339844 C 114.425781 55.339844 55.339844 114.425781 55.339844 187.339844 C 55.339844 260.253906 114.425781 319.339844 187.339844 319.339844 C 260.253906 319.339844 319.339844 260.253906 319.339844 187.339844 C 319.226562 114.425781 260.140625 55.339844 187.339844 55.339844 Z M 264.367188 157.625 C 264.367188 157.625 266.65625 208.140625 228.253906 239.453125 C 170.769531 286.199219 108.710938 248.253906 108.710938 248.253906 C 108.710938 248.253906 123.796875 248.484375 137.167969 244.941406 C 150.425781 241.398438 160.027344 232.710938 160.027344 232.710938 C 160.027344 232.710938 145.511719 229.738281 137.96875 224.253906 C 130.425781 218.769531 127.453125 208.253906 127.453125 208.253906 C 127.453125 208.253906 132.484375 208.710938 135.570312 208.597656 C 138.769531 208.484375 142.539062 206.996094 142.539062 206.996094 C 142.539062 206.996094 132.140625 205.738281 122.425781 194.882812 C 114.769531 186.3125 115.339844 172.027344 115.339844 172.027344 C 115.339844 172.027344 119.910156 174.769531 122.3125 175.339844 C 124.710938 176.027344 129.398438 176.027344 129.398438 176.027344 C 129.398438 176.027344 120.253906 170.65625 116.253906 156.597656 C 112.253906 142.65625 119.910156 128.484375 119.910156 128.484375 C 119.910156 128.484375 133.511719 144.941406 153.625 155.453125 C 173.738281 165.96875 192.710938 165.625 192.710938 165.625 C 192.710938 165.625 189.96875 157.28125 194.769531 144.941406 C 199.570312 132.597656 210.425781 123.683594 226.996094 122.425781 C 243.570312 121.054688 254.199219 133.625 254.199219 133.625 C 254.199219 133.625 259.339844 132.710938 265.167969 130.539062 C 270.996094 128.484375 276.824219 125.738281 276.824219 125.738281 C 276.824219 125.738281 274.769531 132.027344 270.769531 136.941406 C 266.769531 141.855469 262.3125 144.824219 262.3125 144.824219 C 262.3125 144.824219 267.570312 144.484375 272.824219 142.996094 C 278.082031 141.511719 280.941406 140.027344 280.941406 140.027344 C 274.882812 150.082031 264.367188 157.625 264.367188 157.625 Z M 264.367188 157.625 " fill-opacity="1" fill-rule="nonzero"/></g></svg>