<svg width="200" height="200" viewBox="0 0 200 200" fill="none" xmlns="http://www.w3.org/2000/svg">
<g id="Twitter">
<g id="Group">
<path id="Vector" d="M40.9269 46.804H162.527C165.992 46.804 169.312 48.1771 171.763 50.6244C174.213 53.0717 175.589 56.392 175.589 59.8544V146.822C175.589 150.281 174.213 153.601 171.763 156.049C169.312 158.496 165.992 159.872 162.527 159.872H40.9269C37.4616 159.872 34.1413 158.496 31.691 156.049C29.2407 153.601 27.8646 150.281 27.8646 146.822V59.8544C27.8646 56.392 29.2407 53.0717 31.691 50.6244C34.1413 48.1771 37.4616 46.804 40.9269 46.804Z" fill="white"/>
</g>
<g id="Group_2">
<path id="Vector_2" d="M100 0C44.7621 0 0 44.7621 0 100C0 155.238 44.7621 200 100 200C155.238 200 200 155.238 200 100C199.914 44.7621 155.152 0 100 0ZM158.354 77.4888C158.354 77.4888 160.088 115.758 130.996 139.48C87.4467 174.893 40.4326 146.147 40.4326 146.147C40.4326 146.147 51.8614 146.322 61.991 143.638C72.0348 140.953 79.3087 134.372 79.3087 134.372C79.3087 134.372 68.312 132.12 62.5977 127.965C56.8833 123.81 54.6313 115.844 54.6313 115.844C54.6313 115.844 58.4428 116.19 60.7807 116.104C63.2043 116.019 66.06 114.891 66.06 114.891C66.06 114.891 58.1824 113.938 50.8227 105.714C45.0225 99.2217 45.4545 88.3996 45.4545 88.3996C45.4545 88.3996 48.9169 90.477 50.7369 90.9091C52.5539 91.4299 56.105 91.4299 56.105 91.4299C56.105 91.4299 49.1773 87.3609 46.147 76.7105C43.1167 66.1488 48.9169 55.4125 48.9169 55.4125C48.9169 55.4125 59.2211 67.88 74.4585 75.8434C89.6958 83.8098 104.069 83.5494 104.069 83.5494C104.069 83.5494 101.992 77.2283 105.629 67.88C109.266 58.5286 117.489 51.7756 130.043 50.8227C142.599 49.784 150.651 59.3069 150.651 59.3069C150.651 59.3069 154.545 58.6145 158.961 56.9691C163.376 55.4125 167.791 53.3321 167.791 53.3321C167.791 53.3321 166.235 58.0966 163.204 61.8194C160.174 65.5421 156.797 67.7912 156.797 67.7912C156.797 67.7912 160.781 67.5337 164.761 66.4062C168.744 65.2817 170.91 64.1572 170.91 64.1572C166.32 71.7744 158.354 77.4888 158.354 77.4888Z" fill="#7289DA"/>
</g>
</g>
</svg>
